<svg width="100%" height="100%" viewBox="0 0 512 512" xmlns="http://www.w3.org/2000/svg">
    <defs>
        <!-- Linear gradient for smooth fading to transparent on the right -->
        <linearGradient id="fadeGradient" x1="280" y1="0" x2="480" y2="0" gradientUnits="userSpaceOnUse">
            <stop offset="0" stop-color="white" stop-opacity="1" />

            <stop offset="0.4" stop-color="white" stop-opacity="0.8" />
            <stop offset="0.8" stop-color="white" stop-opacity="0.3" />
            <stop offset="1" stop-color="white" stop-opacity="0" />
        </linearGradient>
        <mask id="fadeMask">
            <rect x="0" y="0" width="512" height="512" fill="url(#fadeGradient)" />
        </mask>
    </defs>

    <!-- Base group with minor centering offset and global fill color -->
    <g transform="translate(-15, 0)" fill="#2563eb">
        
        <!-- Solid Left Side of the Octagonal "C" -->
        <path d="M 96,186
                 L 166,116
                 L 240,116
                 L 240,196
                 L 200,196
                 L 176,220
                 L 176,292
                 L 200,316
                 L 240,316
                 L 240,396
                 L 166,396
                 L 96,326 Z" />

        <!-- Dispersing Pixels and Fragments -->
        <g mask="url(#fadeMask)">
            <!-- X = 240 (Seamless extension of the solid part) -->
            <rect x="240" y="116" width="16" height="80" />
            <rect x="240" y="316" width="16" height="80" />

            <!-- X = 256 -->
            <rect x="256" y="116" width="8" height="24" />
            <rect x="256" y="148" width="12" height="32" />
            <rect x="256" y="188" width="8" height="8" />
            <rect x="258" y="142" width="4" height="4" />
            <rect x="256" y="182" width="6" height="4" />
            
            <rect x="256" y="316" width="8" height="16" />
            <rect x="256" y="340" width="12" height="24" />
            <rect x="256" y="372" width="8" height="24" />
            <rect x="256" y="334" width="4" height="4" />
            <rect x="258" y="366" width="6" height="4" />

            <!-- X = 268 -->
            <rect x="268" y="116" width="8" height="12" />
            <rect x="270" y="132" width="6" height="16" />
            <rect x="272" y="152" width="12" height="12" />
            <rect x="268" y="168" width="8" height="8" />
            <rect x="270" y="180" width="6" height="16" />
            
            <rect x="270" y="316" width="6" height="12" />
            <rect x="268" y="332" width="8" height="16" />
            <rect x="272" y="352" width="12" height="12" />
            <rect x="270" y="368" width="6" height="8" />
            <rect x="268" y="380" width="8" height="16" />

            <!-- X = 280 -->
            <rect x="280" y="120" width="6" height="6" />
            <rect x="282" y="130" width="8" height="8" />
            <rect x="280" y="142" width="4" height="4" />
            <rect x="286" y="148" width="6" height="6" />
            <rect x="282" y="160" width="8" height="8" />
            <rect x="280" y="172" width="4" height="4" />
            <rect x="284" y="180" width="6" height="6" />
            <rect x="280" y="190" width="4" height="4" />

            <rect x="282" y="318" width="6" height="6" />
            <rect x="280" y="328" width="8" height="8" />
            <rect x="284" y="340" width="4" height="4" />
            <rect x="280" y="348" width="6" height="6" />
            <rect x="286" y="358" width="8" height="8" />
            <rect x="282" y="370" width="4" height="4" />
            <rect x="280" y="378" width="6" height="6" />
            <rect x="284" y="388" width="4" height="4" />

            <!-- X = 292 -->
            <rect x="292" y="116" width="4" height="4" />
            <rect x="296" y="126" width="6" height="6" />
            <rect x="294" y="136" width="8" height="8" />
            <rect x="292" y="150" width="4" height="4" />
            <rect x="298" y="158" width="6" height="6" />
            <rect x="294" y="168" width="8" height="8" />
            <rect x="292" y="182" width="4" height="4" />
            <rect x="296" y="192" width="6" height="6" />

            <rect x="296" y="316" width="6" height="6" />
            <rect x="292" y="326" width="4" height="4" />
            <rect x="298" y="334" width="8" height="8" />
            <rect x="294" y="346" width="4" height="4" />
            <rect x="292" y="356" width="6" height="6" />
            <rect x="296" y="366" width="8" height="8" />
            <rect x="294" y="378" width="4" height="4" />
            <rect x="292" y="390" width="6" height="6" />

            <!-- X = 308 -->
            <rect x="308" y="112" width="4" height="4" />
            <rect x="312" y="124" width="6" height="6" />
            <rect x="308" y="138" width="4" height="4" />
            <rect x="314" y="148" width="6" height="6" />
            <rect x="310" y="162" width="8" height="8" />
            <rect x="308" y="176" width="4" height="4" />
            <rect x="312" y="188" width="6" height="6" />
            <rect x="310" y="200" width="4" height="4" />

            <rect x="310" y="312" width="4" height="4" />
            <rect x="312" y="324" width="6" height="6" />
            <rect x="308" y="338" width="8" height="8" />
            <rect x="314" y="350" width="4" height="4" />
            <rect x="310" y="362" width="6" height="6" />
            <rect x="308" y="376" width="4" height="4" />
            <rect x="312" y="388" width="6" height="6" />
            <rect x="308" y="400" width="4" height="4" />

            <!-- X = 324 -->
            <rect x="324" y="108" width="4" height="4" />
            <rect x="328" y="120" width="4" height="4" />
            <rect x="326" y="134" width="6" height="6" />
            <rect x="330" y="146" width="4" height="4" />
            <rect x="324" y="158" width="6" height="6" />
            <rect x="328" y="172" width="4" height="4" />
            <rect x="326" y="184" width="6" height="6" />
            <rect x="324" y="198" width="4" height="4" />

            <rect x="326" y="314" width="4" height="4" />
            <rect x="324" y="328" width="6" height="6" />
            <rect x="328" y="340" width="4" height="4" />
            <rect x="326" y="354" width="6" height="6" />
            <rect x="330" y="366" width="4" height="4" />
            <rect x="324" y="380" width="6" height="6" />
            <rect x="328" y="392" width="4" height="4" />
            <rect x="324" y="406" width="4" height="4" />

            <!-- X = 340 -->
            <rect x="340" y="104" width="4" height="4" />
            <rect x="344" y="118" width="6" height="6" />
            <rect x="342" y="132" width="4" height="4" />
            <rect x="346" y="148" width="4" height="4" />
            <rect x="340" y="162" width="6" height="6" />
            <rect x="344" y="178" width="4" height="4" />
            <rect x="342" y="192" width="4" height="4" />
            <rect x="346" y="206" width="4" height="4" />

            <rect x="342" y="306" width="4" height="4" />
            <rect x="346" y="320" width="6" height="6" />
            <rect x="340" y="334" width="4" height="4" />
            <rect x="344" y="348" width="4" height="4" />
            <rect x="342" y="362" width="6" height="6" />
            <rect x="346" y="376" width="4" height="4" />
            <rect x="340" y="390" width="4" height="4" />
            <rect x="344" y="408" width="4" height="4" />

            <!-- X = 360 -->
            <rect x="360" y="98" width="4" height="4" />
            <rect x="364" y="116" width="4" height="4" />
            <rect x="362" y="136" width="4" height="4" />
            <rect x="366" y="154" width="4" height="4" />
            <rect x="360" y="174" width="4" height="4" />
            <rect x="364" y="196" width="4" height="4" />
            <rect x="362" y="212" width="4" height="4" />

            <rect x="364" y="298" width="4" height="4" />
            <rect x="360" y="318" width="4" height="4" />
            <rect x="366" y="338" width="4" height="4" />
            <rect x="362" y="358" width="4" height="4" />
            <rect x="364" y="378" width="4" height="4" />
            <rect x="360" y="398" width="4" height="4" />
            <rect x="366" y="416" width="4" height="4" />

            <!-- X = 385 -->
            <rect x="385" y="90" width="3" height="3" />
            <rect x="388" y="112" width="4" height="4" />
            <rect x="385" y="134" width="3" height="3" />
            <rect x="389" y="158" width="4" height="4" />
            <rect x="386" y="182" width="3" height="3" />
            <rect x="389" y="204" width="4" height="4" />

            <rect x="388" y="304" width="4" height="4" />
            <rect x="385" y="328" width="3" height="3" />
            <rect x="389" y="352" width="4" height="4" />
            <rect x="386" y="376" width="3" height="3" />
            <rect x="388" y="400" width="4" height="4" />
            <rect x="385" y="422" width="3" height="3" />

            <!-- X = 410 -->
            <rect x="410" y="104" width="3" height="3" />
            <rect x="414" y="130" width="3" height="3" />
            <rect x="412" y="160" width="4" height="4" />
            <rect x="415" y="188" width="3" height="3" />

            <rect x="412" y="320" width="3" height="3" />
            <rect x="415" y="348" width="4" height="4" />
            <rect x="410" y="380" width="3" height="3" />
            <rect x="414" y="410" width="3" height="3" />

            <!-- X = 440 -->
            <rect x="440" y="115" width="2" height="2" />
            <rect x="444" y="145" width="3" height="3" />
            <rect x="442" y="175" width="2" height="2" />

            <rect x="442" y="335" width="2" height="2" />
            <rect x="445" y="365" width="3" height="3" />
            <rect x="440" y="395" width="2" height="2" />

            <!-- X = 465 -->
            <rect x="465" y="130" width="2" height="2" />
            <rect x="468" y="160" width="2" height="2" />

            <rect x="466" y="350" width="2" height="2" />
            <rect x="465" y="380" width="2" height="2" />

            <!-- Organic Scattered Particles -->
            <rect x="250" y="100" width="4" height="4" />
            <rect x="275" y="110" width="3" height="3" />
            <rect x="295" y="95" width="2" height="2" />
            <rect x="335" y="125" width="3" height="3" />
            <rect x="355" y="145" width="2" height="2" />
            <rect x="375" y="165" width="5" height="5" />
            <rect x="285" y="200" width="3" height="3" />
            <rect x="315" y="210" width="2" height="2" />
            <rect x="345" y="185" width="4" height="4" />
            <rect x="395" y="120" width="2" height="2" />
            <rect x="425" y="150" width="3" height="3" />
            
            <rect x="252" y="408" width="4" height="4" />
            <rect x="278" y="398" width="3" height="3" />
            <rect x="298" y="415" width="2" height="2" />
            <rect x="338" y="385" width="3" height="3" />
            <rect x="358" y="365" width="2" height="2" />
            <rect x="378" y="345" width="5" height="5" />
            <rect x="288" y="308" width="3" height="3" />
            <rect x="318" y="298" width="2" height="2" />
            <rect x="348" y="325" width="4" height="4" />
            <rect x="398" y="390" width="2" height="2" />
            <rect x="428" y="360" width="3" height="3" />
            
            <!-- Drifting bits within the internal cavity -->
            <rect x="220" y="240" width="4" height="4" />
            <rect x="230" y="225" width="2" height="2" />
            <rect x="215" y="260" width="3" height="3" />
            <rect x="235" y="275" width="4" height="4" />
            <rect x="225" y="290" width="2" height="2" />
        </g>
    </g>
</svg>