<svg xmlns="http://www.w3.org/2000/svg" viewBox="0 0 1080 1080" width="1080" height="1080">
<defs>
  <radialGradient id="bg" cx="50%" cy="38%" r="80%"><stop offset="0%" stop-color="#121a33"/><stop offset="100%" stop-color="#0B1020"/></radialGradient>
  <linearGradient id="cob" x1="0" y1="0" x2="0" y2="1"><stop offset="0%" stop-color="#3b82f6"/><stop offset="100%" stop-color="#1d4ed8"/></linearGradient>
  <filter id="glow" x="-60%" y="-60%" width="220%" height="220%"><feGaussianBlur stdDeviation="6" result="b"/><feMerge><feMergeNode in="b"/><feMergeNode in="SourceGraphic"/></feMerge></filter>
  <filter id="gglow" x="-80%" y="-80%" width="260%" height="260%"><feGaussianBlur stdDeviation="9"/></filter>
</defs>
<rect width="1080" height="1080" fill="url(#bg)"/>
<rect x="178.1" y="744.9" width="4" height="4" rx="1" fill="#3b82f6" opacity="0.16"/>
<rect x="1068.9" y="512.6" width="6" height="6" rx="1" fill="#3b82f6" opacity="0.09"/>
<rect x="851.5" y="15.3" width="6" height="6" rx="1" fill="#3b82f6" opacity="0.15"/>
<rect x="857.3" y="250.8" width="3" height="3" rx="1" fill="#3DDC84" opacity="0.21"/>
<rect x="1077.4" y="797.8" width="5" height="5" rx="1" fill="#2563EB" opacity="0.19"/>
<rect x="1033.3" y="583.4" width="2" height="2" rx="1" fill="#5A0FC8" opacity="0.20"/>
<rect x="25.1" y="800.3" width="2" height="2" rx="1" fill="#2563EB" opacity="0.08"/>
<rect x="489.4" y="596.2" width="4" height="4" rx="1" fill="#3b82f6" opacity="0.14"/>
<rect x="201.9" y="40.1" width="3" height="3" rx="1" fill="#3b82f6" opacity="0.07"/>
<rect x="225.2" y="1046.3" width="6" height="6" rx="1" fill="#2563EB" opacity="0.28"/>
<rect x="132.3" y="514.4" width="5" height="5" rx="1" fill="#3b82f6" opacity="0.10"/>
<rect x="958.6" y="442.4" width="4" height="4" rx="1" fill="#3DDC84" opacity="0.27"/>
<rect x="343.4" y="523.2" width="4" height="4" rx="1" fill="#2563EB" opacity="0.06"/>
<rect x="171.7" y="773.3" width="5" height="5" rx="1" fill="#2563EB" opacity="0.05"/>
<rect x="594.5" y="808.0" width="3" height="3" rx="1" fill="#5A0FC8" opacity="0.18"/>
<rect x="601.0" y="672.4" width="3" height="3" rx="1" fill="#5A0FC8" opacity="0.20"/>
<rect x="900.4" y="359.0" width="6" height="6" rx="1" fill="#3b82f6" opacity="0.26"/>
<rect x="111.5" y="70.9" width="3" height="3" rx="1" fill="#5A0FC8" opacity="0.23"/>
<rect x="172.7" y="39.6" width="6" height="6" rx="1" fill="#3b82f6" opacity="0.26"/>
<rect x="439.6" y="1068.2" width="6" height="6" rx="1" fill="#5A0FC8" opacity="0.05"/>
<rect x="530.2" y="405.6" width="3" height="3" rx="1" fill="#3b82f6" opacity="0.27"/>
<rect x="175.3" y="74.9" width="5" height="5" rx="1" fill="#3DDC84" opacity="0.23"/>
<rect x="62.0" y="311.0" width="4" height="4" rx="1" fill="#2563EB" opacity="0.20"/>
<rect x="453.1" y="184.3" width="2" height="2" rx="1" fill="#3b82f6" opacity="0.25"/>
<rect x="1062.1" y="805.5" width="5" height="5" rx="1" fill="#3b82f6" opacity="0.06"/>
<rect x="1035.6" y="567.7" width="5" height="5" rx="1" fill="#3b82f6" opacity="0.06"/>
<rect x="971.4" y="395.0" width="3" height="3" rx="1" fill="#3DDC84" opacity="0.25"/>
<rect x="523.2" y="974.8" width="5" height="5" rx="1" fill="#5A0FC8" opacity="0.12"/>
<rect x="150.5" y="778.4" width="5" height="5" rx="1" fill="#2563EB" opacity="0.21"/>
<rect x="285.6" y="352.3" width="3" height="3" rx="1" fill="#3DDC84" opacity="0.25"/>
<rect x="277.8" y="438.1" width="3" height="3" rx="1" fill="#2563EB" opacity="0.08"/>
<rect x="428.7" y="201.6" width="5" height="5" rx="1" fill="#2563EB" opacity="0.23"/>
<rect x="936.7" y="707.7" width="3" height="3" rx="1" fill="#5A0FC8" opacity="0.12"/>
<rect x="428.0" y="959.0" width="6" height="6" rx="1" fill="#3b82f6" opacity="0.09"/>
<rect x="926.1" y="217.8" width="6" height="6" rx="1" fill="#2563EB" opacity="0.22"/>
<rect x="854.0" y="8.4" width="5" height="5" rx="1" fill="#3DDC84" opacity="0.25"/>
<rect x="825.0" y="189.3" width="3" height="3" rx="1" fill="#5A0FC8" opacity="0.11"/>
<rect x="805.5" y="264.3" width="3" height="3" rx="1" fill="#5A0FC8" opacity="0.12"/>
<rect x="883.0" y="867.3" width="5" height="5" rx="1" fill="#2563EB" opacity="0.27"/>
<rect x="589.1" y="64.9" width="6" height="6" rx="1" fill="#5A0FC8" opacity="0.22"/>
<rect x="314.9" y="674.7" width="6" height="6" rx="1" fill="#5A0FC8" opacity="0.09"/>
<rect x="1055.0" y="383.6" width="4" height="4" rx="1" fill="#3DDC84" opacity="0.20"/>
<rect x="116.2" y="82.2" width="2" height="2" rx="1" fill="#3DDC84" opacity="0.19"/>
<rect x="545.4" y="1022.8" width="5" height="5" rx="1" fill="#3DDC84" opacity="0.16"/>
<rect x="945.7" y="76.0" width="2" height="2" rx="1" fill="#3DDC84" opacity="0.06"/>
<rect x="45.4" y="297.6" width="6" height="6" rx="1" fill="#3DDC84" opacity="0.24"/>
<rect x="492.5" y="255.4" width="5" height="5" rx="1" fill="#3b82f6" opacity="0.13"/>
<rect x="682.4" y="1040.2" width="2" height="2" rx="1" fill="#3b82f6" opacity="0.06"/>
<rect x="531.2" y="774.5" width="3" height="3" rx="1" fill="#5A0FC8" opacity="0.23"/>
<rect x="264.9" y="990.0" width="5" height="5" rx="1" fill="#3DDC84" opacity="0.12"/>
<rect x="890.8" y="1040.8" width="2" height="2" rx="1" fill="#3b82f6" opacity="0.09"/>
<rect x="336.7" y="422.5" width="3" height="3" rx="1" fill="#3b82f6" opacity="0.07"/>
<rect x="85.9" y="326.8" width="5" height="5" rx="1" fill="#3DDC84" opacity="0.22"/>
<rect x="1061.6" y="1070.1" width="3" height="3" rx="1" fill="#3b82f6" opacity="0.21"/>
<rect x="733.0" y="401.7" width="6" height="6" rx="1" fill="#5A0FC8" opacity="0.21"/>
<rect x="88.6" y="30.9" width="6" height="6" rx="1" fill="#3b82f6" opacity="0.11"/>
<rect x="971.7" y="547.6" width="3" height="3" rx="1" fill="#5A0FC8" opacity="0.19"/>
<rect x="773.5" y="169.7" width="5" height="5" rx="1" fill="#3DDC84" opacity="0.16"/>
<rect x="497.6" y="719.0" width="3" height="3" rx="1" fill="#5A0FC8" opacity="0.20"/>
<rect x="106.9" y="1053.2" width="3" height="3" rx="1" fill="#5A0FC8" opacity="0.06"/>
<rect x="20.5" y="541.3" width="2" height="2" rx="1" fill="#3DDC84" opacity="0.14"/>
<rect x="756.4" y="259.4" width="2" height="2" rx="1" fill="#3b82f6" opacity="0.27"/>
<rect x="102.1" y="333.7" width="5" height="5" rx="1" fill="#2563EB" opacity="0.14"/>
<rect x="399.6" y="145.7" width="5" height="5" rx="1" fill="#2563EB" opacity="0.17"/>
<rect x="333.3" y="450.5" width="6" height="6" rx="1" fill="#3DDC84" opacity="0.11"/>
<rect x="954.2" y="19.0" width="6" height="6" rx="1" fill="#3DDC84" opacity="0.07"/>
<rect x="971.7" y="806.7" width="3" height="3" rx="1" fill="#3DDC84" opacity="0.08"/>
<rect x="880.4" y="655.0" width="6" height="6" rx="1" fill="#5A0FC8" opacity="0.16"/>
<rect x="164.9" y="165.7" width="4" height="4" rx="1" fill="#2563EB" opacity="0.12"/>
<rect x="961.4" y="76.7" width="2" height="2" rx="1" fill="#2563EB" opacity="0.09"/>
<rect x="732.2" y="205.0" width="4" height="4" rx="1" fill="#3b82f6" opacity="0.13"/>
<rect x="40.1" y="534.7" width="5" height="5" rx="1" fill="#2563EB" opacity="0.09"/>
<rect x="251.3" y="387.3" width="4" height="4" rx="1" fill="#3b82f6" opacity="0.14"/>
<rect x="786.0" y="566.5" width="2" height="2" rx="1" fill="#3b82f6" opacity="0.12"/>
<rect x="230.8" y="43.7" width="4" height="4" rx="1" fill="#3b82f6" opacity="0.19"/>
<rect x="22.7" y="398.0" width="5" height="5" rx="1" fill="#3DDC84" opacity="0.09"/>
<rect x="871.3" y="978.9" width="2" height="2" rx="1" fill="#2563EB" opacity="0.10"/>
<rect x="1047.8" y="421.4" width="5" height="5" rx="1" fill="#5A0FC8" opacity="0.27"/>
<rect x="12.1" y="380.1" width="6" height="6" rx="1" fill="#2563EB" opacity="0.11"/>
<rect x="816.1" y="698.6" width="3" height="3" rx="1" fill="#3DDC84" opacity="0.09"/>
<rect x="223.4" y="1077.9" width="6" height="6" rx="1" fill="#3DDC84" opacity="0.12"/>
<rect x="799.2" y="953.4" width="4" height="4" rx="1" fill="#3b82f6" opacity="0.26"/>
<rect x="438.0" y="192.5" width="6" height="6" rx="1" fill="#5A0FC8" opacity="0.20"/>
<rect x="618.7" y="1073.7" width="5" height="5" rx="1" fill="#2563EB" opacity="0.27"/>
<rect x="1063.0" y="799.3" width="2" height="2" rx="1" fill="#5A0FC8" opacity="0.10"/>
<rect x="966.7" y="555.1" width="2" height="2" rx="1" fill="#3DDC84" opacity="0.09"/>
<rect x="662.7" y="501.7" width="5" height="5" rx="1" fill="#3b82f6" opacity="0.22"/>
<rect x="273.2" y="464.5" width="5" height="5" rx="1" fill="#3DDC84" opacity="0.10"/>
<rect x="286.7" y="580.8" width="5" height="5" rx="1" fill="#5A0FC8" opacity="0.10"/>
<rect x="633.4" y="867.0" width="3" height="3" rx="1" fill="#3b82f6" opacity="0.22"/>
<circle cx="540" cy="380" r="260" fill="#2563EB" opacity="0.10" filter="url(#gglow)"/>
<g transform="translate(470,360) scale(1.5)" fill="#2563EB">
<path d="M -40,-80 L 10,-130 L 70,-130 L 70,-70 L 30,-70 L 6,-46 L 6,46 L 30,70 L 70,70 L 70,130 L 10,130 L -40,80 Z"/>
<rect x="72" y="83" width="14" height="14" rx="2" opacity="0.90"/>
<rect x="81" y="-59" width="14" height="14" rx="2" opacity="0.90"/>
<rect x="77" y="-12" width="14" height="14" rx="2" opacity="0.90"/>
<rect x="79" y="69" width="14" height="14" rx="2" opacity="0.90"/>
<rect x="71" y="-113" width="14" height="14" rx="2" opacity="0.90"/>
<rect x="82" y="-16" width="14" height="14" rx="2" opacity="0.90"/>
<rect x="81" y="-119" width="14" height="14" rx="2" opacity="0.90"/>
<rect x="98" y="53" width="13" height="13" rx="2" opacity="0.79"/>
<rect x="95" y="107" width="13" height="13" rx="2" opacity="0.79"/>
<rect x="105" y="-113" width="13" height="13" rx="2" opacity="0.79"/>
<rect x="92" y="10" width="13" height="13" rx="2" opacity="0.79"/>
<rect x="105" y="-29" width="13" height="13" rx="2" opacity="0.79"/>
<rect x="95" y="-19" width="13" height="13" rx="2" opacity="0.79"/>
<rect x="114" y="-67" width="11" height="11" rx="2" opacity="0.68"/>
<rect x="120" y="-1" width="11" height="11" rx="2" opacity="0.68"/>
<rect x="117" y="-65" width="11" height="11" rx="2" opacity="0.68"/>
<rect x="117" y="-10" width="11" height="11" rx="2" opacity="0.68"/>
<rect x="118" y="-115" width="11" height="11" rx="2" opacity="0.68"/>
<rect x="148" y="14" width="10" height="10" rx="2" opacity="0.57"/>
<rect x="145" y="-75" width="10" height="10" rx="2" opacity="0.57"/>
<rect x="150" y="86" width="10" height="10" rx="2" opacity="0.57"/>
<rect x="138" y="-40" width="10" height="10" rx="2" opacity="0.57"/>
<rect x="168" y="51" width="9" height="9" rx="2" opacity="0.46"/>
<rect x="171" y="-19" width="9" height="9" rx="2" opacity="0.46"/>
<rect x="170" y="41" width="9" height="9" rx="2" opacity="0.46"/>
<rect x="184" y="21" width="8" height="8" rx="2" opacity="0.35"/>
<rect x="192" y="83" width="8" height="8" rx="2" opacity="0.35"/>
<rect x="209" y="21" width="6" height="6" rx="2" opacity="0.24"/>
</g>
<text x="540" y="560" font-family="Poppins, Nunito, 'Segoe UI', system-ui, sans-serif" font-size="78" font-weight="900" fill="#F4F6FF" text-anchor="middle">Cipher</text>
<text x="540" y="624" font-family="Poppins, Nunito, 'Segoe UI', system-ui, sans-serif" font-size="34" fill="#3DDC84" text-anchor="middle" filter="url(#glow)">Lock it. Then hide it.</text>
<g transform="translate(430,800) scale(0.7)">
<path d="M -150,30 C -230,30 -250,-70 -180,-90 C -120,-105 -120,-30 -160,-25 C -185,-22 -185,-55 -165,-58" fill="none" stroke="url(#cob)" stroke-width="34" stroke-linecap="round"/>
<rect x="-267" y="-85" width="10" height="10" rx="2" fill="#3b82f6" opacity="0.90"/>
<rect x="-314" y="-93" width="6" height="6" rx="2" fill="#3b82f6" opacity="0.85"/>
<rect x="-292" y="-41" width="12" height="12" rx="2" fill="#3b82f6" opacity="0.80"/>
<rect x="-268" y="-122" width="12" height="12" rx="2" fill="#3b82f6" opacity="0.75"/>
<rect x="-288" y="-84" width="12" height="12" rx="2" fill="#3b82f6" opacity="0.70"/>
<rect x="-295" y="-132" width="8" height="8" rx="2" fill="#3b82f6" opacity="0.65"/>
<rect x="-311" y="-87" width="6" height="6" rx="2" fill="#3b82f6" opacity="0.60"/>
<rect x="-297" y="-142" width="6" height="6" rx="2" fill="#3b82f6" opacity="0.55"/>
<rect x="-271" y="-146" width="10" height="10" rx="2" fill="#3b82f6" opacity="0.50"/>
<rect x="-283" y="-64" width="12" height="12" rx="2" fill="#3b82f6" opacity="0.45"/>
<rect x="-300" y="-39" width="12" height="12" rx="2" fill="#3b82f6" opacity="0.40"/>
<rect x="-301" y="-81" width="8" height="8" rx="2" fill="#3b82f6" opacity="0.35"/>
<rect x="-312" y="-138" width="8" height="8" rx="2" fill="#3b82f6" opacity="0.30"/>
<rect x="-285" y="-119" width="12" height="12" rx="2" fill="#3b82f6" opacity="0.25"/>
<rect x="-305" y="-47" width="12" height="12" rx="2" fill="#3b82f6" opacity="0.20"/>
<rect x="-286" y="-104" width="10" height="10" rx="2" fill="#3b82f6" opacity="0.15"/>
<path d="M -40,95 q -18,55 -55,70" fill="none" stroke="#1d4ed8" stroke-width="26" stroke-linecap="round"/>
<path d="M 70,95 q 18,55 55,70" fill="none" stroke="#1d4ed8" stroke-width="26" stroke-linecap="round"/>
<path d="M -160,10 C -150,-90 -60,-150 30,-150 C 130,-150 195,-95 205,-30 C 212,15 175,70 150,95 C 90,150 -70,150 -120,110 C -160,80 -168,55 -160,10 Z" fill="url(#cob)"/>
<path d="M -120,75 C -60,140 90,140 145,90 C 110,120 -70,128 -120,75 Z" fill="#3b82f6" opacity="0.55"/>
<path d="M -120,-138 l 14,-18 l 14,18 Z" fill="#5A0FC8" opacity="0.9"/>
<path d="M -80,-144 l 14,-20 l 14,20 Z" fill="#5A0FC8" opacity="0.9"/>
<path d="M -38,-150 l 14,-22 l 14,22 Z" fill="#5A0FC8" opacity="0.9"/>
<path d="M 5,-144 l 14,-20 l 14,20 Z" fill="#5A0FC8" opacity="0.9"/>
<path d="M 50,-138 l 14,-18 l 14,18 Z" fill="#5A0FC8" opacity="0.9"/>
<path d="M 95,-132 l 14,-16 l 14,16 Z" fill="#5A0FC8" opacity="0.9"/>
<path d="M 150,-70 C 215,-80 270,-45 270,5 C 270,55 215,80 165,70 C 120,60 120,-55 150,-70 Z" fill="url(#cob)"/>
<ellipse cx="262" cy="22" rx="48" ry="34" fill="#1d4ed8"/>
<path d="M 225,38 q 45,28 80,6" fill="none" stroke="#0B1020" stroke-width="6" stroke-linecap="round"/>
<circle cx="205" cy="-28" r="52" fill="url(#cob)"/>
<circle cx="205" cy="-28" r="36" fill="#F4F6FF"/>
<circle cx="218" cy="-24" r="18" fill="#3DDC84"/>
<circle cx="218" cy="-24" r="8" fill="#0B1020"/>
<circle cx="212" cy="-30" r="5" fill="#F4F6FF"/>
<rect x="26" y="6" width="12" height="12" rx="2" fill="#F4F6FF" opacity="0.11"/>
<rect x="183" y="-91" width="14" height="14" rx="2" fill="#F4F6FF" opacity="0.11"/>
<rect x="89" y="-92" width="12" height="12" rx="2" fill="#F4F6FF" opacity="0.09"/>
<rect x="120" y="-129" width="12" height="12" rx="2" fill="#F4F6FF" opacity="0.18"/>
<rect x="105" y="20" width="10" height="10" rx="2" fill="#F4F6FF" opacity="0.13"/>
<rect x="174" y="-124" width="10" height="10" rx="2" fill="#F4F6FF" opacity="0.07"/>
<rect x="-56" y="-132" width="12" height="12" rx="2" fill="#F4F6FF" opacity="0.09"/>
<rect x="80" y="-89" width="10" height="10" rx="2" fill="#F4F6FF" opacity="0.13"/>
<rect x="45" y="32" width="12" height="12" rx="2" fill="#F4F6FF" opacity="0.14"/>
<rect x="9" y="3" width="10" height="10" rx="2" fill="#F4F6FF" opacity="0.14"/>
<rect x="-27" y="-80" width="12" height="12" rx="2" fill="#F4F6FF" opacity="0.05"/>
<rect x="70" y="-112" width="10" height="10" rx="2" fill="#F4F6FF" opacity="0.16"/>
<rect x="1" y="109" width="14" height="14" rx="2" fill="#F4F6FF" opacity="0.05"/>
<rect x="-68" y="97" width="12" height="12" rx="2" fill="#F4F6FF" opacity="0.10"/>
<rect x="126" y="-31" width="14" height="14" rx="2" fill="#F4F6FF" opacity="0.13"/>
<rect x="154" y="-70" width="10" height="10" rx="2" fill="#F4F6FF" opacity="0.09"/>
<rect x="-144" y="-33" width="10" height="10" rx="2" fill="#F4F6FF" opacity="0.07"/>
<rect x="126" y="-137" width="12" height="12" rx="2" fill="#F4F6FF" opacity="0.15"/>
<rect x="-81" y="5" width="12" height="12" rx="2" fill="#F4F6FF" opacity="0.12"/>
<rect x="234" y="60" width="12" height="12" rx="2" fill="#F4F6FF" opacity="0.13"/>
<rect x="-105" y="-31" width="10" height="10" rx="2" fill="#F4F6FF" opacity="0.05"/>
<rect x="187" y="113" width="14" height="14" rx="2" fill="#F4F6FF" opacity="0.09"/>
<rect x="195" y="-85" width="12" height="12" rx="2" fill="#F4F6FF" opacity="0.18"/>
<rect x="85" y="10" width="10" height="10" rx="2" fill="#F4F6FF" opacity="0.18"/>
<rect x="-67" y="-73" width="14" height="14" rx="2" fill="#F4F6FF" opacity="0.09"/>
<rect x="-34" y="-121" width="10" height="10" rx="2" fill="#F4F6FF" opacity="0.08"/>
<rect x="98" y="-136" width="12" height="12" rx="2" fill="#F4F6FF" opacity="0.10"/>
<rect x="27" y="109" width="12" height="12" rx="2" fill="#F4F6FF" opacity="0.16"/>
<rect x="-97" y="-40" width="14" height="14" rx="2" fill="#F4F6FF" opacity="0.07"/>
<rect x="204" y="73" width="10" height="10" rx="2" fill="#F4F6FF" opacity="0.14"/>
<rect x="-88" y="24" width="14" height="14" rx="2" fill="#F4F6FF" opacity="0.08"/>
<rect x="221" y="89" width="14" height="14" rx="2" fill="#F4F6FF" opacity="0.06"/>
<rect x="-132" y="-112" width="14" height="14" rx="2" fill="#F4F6FF" opacity="0.18"/>
<rect x="-57" y="43" width="12" height="12" rx="2" fill="#F4F6FF" opacity="0.10"/>
<rect x="203" y="-12" width="14" height="14" rx="2" fill="#F4F6FF" opacity="0.07"/>
<rect x="131" y="-122" width="10" height="10" rx="2" fill="#F4F6FF" opacity="0.11"/>
<rect x="105" y="20" width="10" height="10" rx="2" fill="#F4F6FF" opacity="0.09"/>
<rect x="208" y="-87" width="10" height="10" rx="2" fill="#F4F6FF" opacity="0.06"/>
<rect x="10" y="-75" width="10" height="10" rx="2" fill="#F4F6FF" opacity="0.07"/>
<rect x="-6" y="9" width="10" height="10" rx="2" fill="#F4F6FF" opacity="0.06"/>
<rect x="-96" y="-23" width="12" height="12" rx="2" fill="#F4F6FF" opacity="0.14"/>
<rect x="120" y="12" width="10" height="10" rx="2" fill="#F4F6FF" opacity="0.13"/>
<rect x="210" y="-17" width="12" height="12" rx="2" fill="#F4F6FF" opacity="0.14"/>
<rect x="225" y="-134" width="14" height="14" rx="2" fill="#F4F6FF" opacity="0.06"/>
<rect x="-124" y="-59" width="10" height="10" rx="2" fill="#F4F6FF" opacity="0.18"/>
<g filter="url(#glow)"><rect x="-40" y="20" width="46" height="46" rx="8" fill="#3DDC84" opacity="0.95"/><circle cx="-17" cy="40" r="7" fill="#0B1020"/><rect x="-20" y="40" width="6" height="14" fill="#0B1020"/></g>
</g>
<g transform="translate(620,760)"><rect width="300" height="96" rx="28" fill="#121a33" stroke="#26304f" stroke-width="2"/><text x="28" y="58" font-family="Poppins, Nunito, 'Segoe UI', system-ui, sans-serif" font-size="30" fill="#F4F6FF" opacity="0.4">...looks empty</text></g>
<g filter="url(#glow)" transform="translate(600,720)"><rect x="0" y="0" width="54" height="44" rx="8" fill="#3DDC84"/><path d="M 10,0 v-14 a17,17 0 0 1 34,0 v14" fill="none" stroke="#3DDC84" stroke-width="9"/><circle cx="27" cy="22" r="6" fill="#0B1020"/></g>
<text x="540" y="1010" font-family="'JetBrains Mono','Space Mono',ui-monospace,monospace" font-size="26" fill="#3b82f6" text-anchor="middle">offline - on-device - open source</text>
</svg>