<svg xmlns="http://www.w3.org/2000/svg" viewBox="0 0 1080 1350" width="1080" height="1350">
<defs>
  <radialGradient id="bg" cx="50%" cy="38%" r="80%"><stop offset="0%" stop-color="#121a33"/><stop offset="100%" stop-color="#0B1020"/></radialGradient>
  <linearGradient id="cob" x1="0" y1="0" x2="0" y2="1"><stop offset="0%" stop-color="#3b82f6"/><stop offset="100%" stop-color="#1d4ed8"/></linearGradient>
  <filter id="glow" x="-60%" y="-60%" width="220%" height="220%"><feGaussianBlur stdDeviation="6" result="b"/><feMerge><feMergeNode in="b"/><feMergeNode in="SourceGraphic"/></feMerge></filter>
  <filter id="gglow" x="-80%" y="-80%" width="260%" height="260%"><feGaussianBlur stdDeviation="9"/></filter>
</defs>
<rect width="1080" height="1350" fill="url(#bg)"/>
<rect x="512.5" y="887.6" width="4" height="4" rx="1" fill="#2563EB" opacity="0.08"/>
<rect x="1076.4" y="651.4" width="5" height="5" rx="1" fill="#3b82f6" opacity="0.21"/>
<rect x="602.8" y="892.8" width="3" height="3" rx="1" fill="#5A0FC8" opacity="0.27"/>
<rect x="175.2" y="1223.1" width="2" height="2" rx="1" fill="#3b82f6" opacity="0.18"/>
<rect x="80.6" y="927.4" width="4" height="4" rx="1" fill="#2563EB" opacity="0.21"/>
<rect x="20.1" y="82.1" width="6" height="6" rx="1" fill="#3DDC84" opacity="0.10"/>
<rect x="1022.5" y="151.9" width="5" height="5" rx="1" fill="#5A0FC8" opacity="0.27"/>
<rect x="952.6" y="753.5" width="2" height="2" rx="1" fill="#2563EB" opacity="0.18"/>
<rect x="432.6" y="565.4" width="6" height="6" rx="1" fill="#3DDC84" opacity="0.16"/>
<rect x="584.4" y="865.0" width="2" height="2" rx="1" fill="#5A0FC8" opacity="0.27"/>
<rect x="384.9" y="490.2" width="5" height="5" rx="1" fill="#2563EB" opacity="0.20"/>
<rect x="272.6" y="452.6" width="4" height="4" rx="1" fill="#3b82f6" opacity="0.17"/>
<rect x="30.4" y="1110.5" width="5" height="5" rx="1" fill="#2563EB" opacity="0.06"/>
<rect x="239.9" y="576.8" width="5" height="5" rx="1" fill="#2563EB" opacity="0.10"/>
<rect x="813.6" y="297.9" width="2" height="2" rx="1" fill="#2563EB" opacity="0.21"/>
<rect x="468.2" y="672.7" width="6" height="6" rx="1" fill="#2563EB" opacity="0.20"/>
<rect x="555.1" y="497.2" width="4" height="4" rx="1" fill="#3DDC84" opacity="0.11"/>
<rect x="752.7" y="1155.0" width="3" height="3" rx="1" fill="#3b82f6" opacity="0.27"/>
<rect x="501.9" y="741.0" width="3" height="3" rx="1" fill="#3b82f6" opacity="0.09"/>
<rect x="985.0" y="9.0" width="4" height="4" rx="1" fill="#5A0FC8" opacity="0.26"/>
<rect x="193.9" y="1073.2" width="6" height="6" rx="1" fill="#2563EB" opacity="0.06"/>
<rect x="1062.5" y="1348.0" width="6" height="6" rx="1" fill="#5A0FC8" opacity="0.09"/>
<rect x="952.5" y="902.6" width="4" height="4" rx="1" fill="#3b82f6" opacity="0.20"/>
<rect x="846.9" y="678.0" width="5" height="5" rx="1" fill="#5A0FC8" opacity="0.19"/>
<rect x="739.3" y="600.5" width="3" height="3" rx="1" fill="#2563EB" opacity="0.15"/>
<rect x="300.6" y="1274.3" width="6" height="6" rx="1" fill="#3DDC84" opacity="0.20"/>
<rect x="761.1" y="289.0" width="4" height="4" rx="1" fill="#2563EB" opacity="0.17"/>
<rect x="738.0" y="937.0" width="3" height="3" rx="1" fill="#5A0FC8" opacity="0.18"/>
<rect x="453.9" y="325.7" width="5" height="5" rx="1" fill="#2563EB" opacity="0.16"/>
<rect x="604.7" y="843.4" width="4" height="4" rx="1" fill="#3DDC84" opacity="0.22"/>
<rect x="465.7" y="125.4" width="5" height="5" rx="1" fill="#5A0FC8" opacity="0.23"/>
<rect x="1058.4" y="861.4" width="5" height="5" rx="1" fill="#2563EB" opacity="0.18"/>
<rect x="743.9" y="209.8" width="2" height="2" rx="1" fill="#2563EB" opacity="0.23"/>
<rect x="983.4" y="722.2" width="5" height="5" rx="1" fill="#5A0FC8" opacity="0.23"/>
<rect x="204.1" y="365.4" width="6" height="6" rx="1" fill="#2563EB" opacity="0.16"/>
<rect x="228.9" y="808.7" width="5" height="5" rx="1" fill="#2563EB" opacity="0.18"/>
<rect x="439.4" y="436.9" width="4" height="4" rx="1" fill="#2563EB" opacity="0.08"/>
<rect x="778.4" y="419.3" width="3" height="3" rx="1" fill="#3DDC84" opacity="0.22"/>
<rect x="394.9" y="40.1" width="5" height="5" rx="1" fill="#3DDC84" opacity="0.19"/>
<rect x="193.7" y="901.0" width="4" height="4" rx="1" fill="#5A0FC8" opacity="0.16"/>
<rect x="104.6" y="302.9" width="4" height="4" rx="1" fill="#3b82f6" opacity="0.13"/>
<rect x="743.6" y="399.7" width="6" height="6" rx="1" fill="#5A0FC8" opacity="0.26"/>
<rect x="175.3" y="627.3" width="6" height="6" rx="1" fill="#3b82f6" opacity="0.17"/>
<rect x="497.0" y="1060.3" width="2" height="2" rx="1" fill="#3b82f6" opacity="0.24"/>
<rect x="440.1" y="943.5" width="5" height="5" rx="1" fill="#3DDC84" opacity="0.17"/>
<rect x="716.3" y="1312.8" width="6" height="6" rx="1" fill="#5A0FC8" opacity="0.18"/>
<rect x="378.2" y="988.5" width="4" height="4" rx="1" fill="#5A0FC8" opacity="0.23"/>
<rect x="683.1" y="230.0" width="5" height="5" rx="1" fill="#3b82f6" opacity="0.10"/>
<rect x="272.0" y="62.0" width="4" height="4" rx="1" fill="#5A0FC8" opacity="0.12"/>
<rect x="420.2" y="1178.7" width="6" height="6" rx="1" fill="#3b82f6" opacity="0.12"/>
<rect x="280.0" y="44.0" width="6" height="6" rx="1" fill="#3DDC84" opacity="0.23"/>
<rect x="445.4" y="834.0" width="4" height="4" rx="1" fill="#3DDC84" opacity="0.13"/>
<rect x="531.8" y="1268.9" width="3" height="3" rx="1" fill="#3b82f6" opacity="0.09"/>
<rect x="902.6" y="148.0" width="4" height="4" rx="1" fill="#2563EB" opacity="0.17"/>
<rect x="937.9" y="881.6" width="4" height="4" rx="1" fill="#5A0FC8" opacity="0.28"/>
<rect x="832.5" y="1159.6" width="4" height="4" rx="1" fill="#3b82f6" opacity="0.24"/>
<rect x="808.9" y="1160.4" width="6" height="6" rx="1" fill="#2563EB" opacity="0.12"/>
<rect x="875.1" y="263.8" width="3" height="3" rx="1" fill="#5A0FC8" opacity="0.21"/>
<rect x="1001.1" y="1325.1" width="4" height="4" rx="1" fill="#2563EB" opacity="0.18"/>
<rect x="655.4" y="138.1" width="5" height="5" rx="1" fill="#3DDC84" opacity="0.17"/>
<rect x="106.0" y="8.4" width="3" height="3" rx="1" fill="#3DDC84" opacity="0.23"/>
<rect x="686.4" y="630.8" width="5" height="5" rx="1" fill="#2563EB" opacity="0.25"/>
<rect x="772.2" y="376.0" width="3" height="3" rx="1" fill="#5A0FC8" opacity="0.16"/>
<rect x="745.6" y="1291.0" width="5" height="5" rx="1" fill="#5A0FC8" opacity="0.18"/>
<rect x="814.2" y="1132.7" width="3" height="3" rx="1" fill="#3b82f6" opacity="0.13"/>
<rect x="116.8" y="113.7" width="2" height="2" rx="1" fill="#3b82f6" opacity="0.24"/>
<rect x="33.5" y="926.9" width="6" height="6" rx="1" fill="#2563EB" opacity="0.19"/>
<rect x="640.6" y="792.5" width="5" height="5" rx="1" fill="#3DDC84" opacity="0.19"/>
<rect x="817.4" y="571.8" width="6" height="6" rx="1" fill="#3b82f6" opacity="0.24"/>
<rect x="422.0" y="885.6" width="4" height="4" rx="1" fill="#5A0FC8" opacity="0.27"/>
<rect x="153.5" y="165.3" width="5" height="5" rx="1" fill="#5A0FC8" opacity="0.19"/>
<rect x="13.5" y="308.5" width="5" height="5" rx="1" fill="#5A0FC8" opacity="0.15"/>
<rect x="891.9" y="1022.4" width="4" height="4" rx="1" fill="#3DDC84" opacity="0.19"/>
<rect x="369.9" y="1200.7" width="6" height="6" rx="1" fill="#2563EB" opacity="0.19"/>
<rect x="249.0" y="520.2" width="6" height="6" rx="1" fill="#3DDC84" opacity="0.18"/>
<rect x="804.5" y="340.4" width="5" height="5" rx="1" fill="#2563EB" opacity="0.28"/>
<rect x="796.0" y="853.0" width="3" height="3" rx="1" fill="#3b82f6" opacity="0.13"/>
<rect x="643.5" y="779.2" width="5" height="5" rx="1" fill="#5A0FC8" opacity="0.13"/>
<rect x="383.2" y="1346.7" width="4" height="4" rx="1" fill="#3DDC84" opacity="0.27"/>
<rect x="76.9" y="843.3" width="3" height="3" rx="1" fill="#5A0FC8" opacity="0.27"/>
<text x="540" y="120" font-family="Poppins, Nunito, 'Segoe UI', system-ui, sans-serif" font-size="62" font-weight="900" fill="#F4F6FF" text-anchor="middle">Two ways to keep a secret</text>
<line x1="540" y1="190" x2="540" y2="1180" stroke="#26304f" stroke-width="3" stroke-dasharray="2 12"/>
<text x="270" y="270" font-family="Poppins, Nunito, 'Segoe UI', system-ui, sans-serif" font-size="40" font-weight="800" fill="#3b82f6" text-anchor="middle">CRYPTOGRAPHY</text>
<text x="270" y="312" font-family="Poppins, Nunito, 'Segoe UI', system-ui, sans-serif" font-size="24" fill="#F4F6FF" text-anchor="middle" opacity="0.8">hides the meaning</text>
<g filter="url(#glow)"><rect x="160" y="470" width="220" height="170" rx="18" fill="#2563EB"/><rect x="160" y="470" width="220" height="50" rx="18" fill="#3b82f6"/><circle cx="270" cy="560" r="26" fill="#0B1020"/><rect x="262" y="560" width="16" height="40" fill="#0B1020"/><path d="M 225,470 v-26 a45,45 0 0 1 90,0 v26" fill="none" stroke="#F4F6FF" stroke-width="14"/></g>
<rect x="120" y="640" width="300" height="26" rx="8" fill="#26304f"/>
<g><ellipse cx="120" cy="740" rx="20" ry="13" fill="#F4F6FF"/><circle cx="120" cy="740" r="7" fill="#0B1020"/></g>
<g><ellipse cx="165" cy="770" rx="20" ry="13" fill="#F4F6FF"/><circle cx="165" cy="770" r="7" fill="#0B1020"/></g>
<g><ellipse cx="210" cy="740" rx="20" ry="13" fill="#F4F6FF"/><circle cx="210" cy="740" r="7" fill="#0B1020"/></g>
<g><ellipse cx="255" cy="770" rx="20" ry="13" fill="#F4F6FF"/><circle cx="255" cy="770" r="7" fill="#0B1020"/></g>
<g><ellipse cx="300" cy="740" rx="20" ry="13" fill="#F4F6FF"/><circle cx="300" cy="740" r="7" fill="#0B1020"/></g>
<g><ellipse cx="345" cy="770" rx="20" ry="13" fill="#F4F6FF"/><circle cx="345" cy="770" r="7" fill="#0B1020"/></g>
<g><ellipse cx="390" cy="740" rx="20" ry="13" fill="#F4F6FF"/><circle cx="390" cy="740" r="7" fill="#0B1020"/></g>
<text x="270" y="900" font-family="Poppins, Nunito, 'Segoe UI', system-ui, sans-serif" font-size="26" fill="#F4F6FF" text-anchor="middle" opacity="0.85">everyone SEES the secret...</text>
<text x="270" y="940" font-family="Poppins, Nunito, 'Segoe UI', system-ui, sans-serif" font-size="26" fill="#F4F6FF" text-anchor="middle" opacity="0.85">they just cannot open it</text>
<text x="810" y="270" font-family="Poppins, Nunito, 'Segoe UI', system-ui, sans-serif" font-size="40" font-weight="800" fill="#3DDC84" text-anchor="middle">STEGANOGRAPHY</text>
<text x="810" y="312" font-family="Poppins, Nunito, 'Segoe UI', system-ui, sans-serif" font-size="24" fill="#F4F6FF" text-anchor="middle" opacity="0.8">hides the secret itself</text>
<path d="M 690,640 q -40,-150 120,-160 q 160,0 130,160 q 10,40 -60,46 q -150,16 -190,-46 Z" fill="#26304f"/>
<g opacity="0.34"><g transform="translate(810,560) scale(0.55)">
<path d="M -150,30 C -230,30 -250,-70 -180,-90 C -120,-105 -120,-30 -160,-25 C -185,-22 -185,-55 -165,-58" fill="none" stroke="url(#cob)" stroke-width="34" stroke-linecap="round"/>
<rect x="-267" y="-85" width="10" height="10" rx="2" fill="#3b82f6" opacity="0.90"/>
<rect x="-314" y="-93" width="6" height="6" rx="2" fill="#3b82f6" opacity="0.85"/>
<rect x="-292" y="-41" width="12" height="12" rx="2" fill="#3b82f6" opacity="0.80"/>
<rect x="-268" y="-122" width="12" height="12" rx="2" fill="#3b82f6" opacity="0.75"/>
<rect x="-288" y="-84" width="12" height="12" rx="2" fill="#3b82f6" opacity="0.70"/>
<rect x="-295" y="-132" width="8" height="8" rx="2" fill="#3b82f6" opacity="0.65"/>
<rect x="-311" y="-87" width="6" height="6" rx="2" fill="#3b82f6" opacity="0.60"/>
<rect x="-297" y="-142" width="6" height="6" rx="2" fill="#3b82f6" opacity="0.55"/>
<rect x="-271" y="-146" width="10" height="10" rx="2" fill="#3b82f6" opacity="0.50"/>
<rect x="-283" y="-64" width="12" height="12" rx="2" fill="#3b82f6" opacity="0.45"/>
<rect x="-300" y="-39" width="12" height="12" rx="2" fill="#3b82f6" opacity="0.40"/>
<rect x="-301" y="-81" width="8" height="8" rx="2" fill="#3b82f6" opacity="0.35"/>
<rect x="-312" y="-138" width="8" height="8" rx="2" fill="#3b82f6" opacity="0.30"/>
<rect x="-285" y="-119" width="12" height="12" rx="2" fill="#3b82f6" opacity="0.25"/>
<rect x="-305" y="-47" width="12" height="12" rx="2" fill="#3b82f6" opacity="0.20"/>
<rect x="-286" y="-104" width="10" height="10" rx="2" fill="#3b82f6" opacity="0.15"/>
<path d="M -40,95 q -18,55 -55,70" fill="none" stroke="#1d4ed8" stroke-width="26" stroke-linecap="round"/>
<path d="M 70,95 q 18,55 55,70" fill="none" stroke="#1d4ed8" stroke-width="26" stroke-linecap="round"/>
<path d="M -160,10 C -150,-90 -60,-150 30,-150 C 130,-150 195,-95 205,-30 C 212,15 175,70 150,95 C 90,150 -70,150 -120,110 C -160,80 -168,55 -160,10 Z" fill="url(#cob)"/>
<path d="M -120,75 C -60,140 90,140 145,90 C 110,120 -70,128 -120,75 Z" fill="#3b82f6" opacity="0.55"/>
<path d="M -120,-138 l 14,-18 l 14,18 Z" fill="#5A0FC8" opacity="0.9"/>
<path d="M -80,-144 l 14,-20 l 14,20 Z" fill="#5A0FC8" opacity="0.9"/>
<path d="M -38,-150 l 14,-22 l 14,22 Z" fill="#5A0FC8" opacity="0.9"/>
<path d="M 5,-144 l 14,-20 l 14,20 Z" fill="#5A0FC8" opacity="0.9"/>
<path d="M 50,-138 l 14,-18 l 14,18 Z" fill="#5A0FC8" opacity="0.9"/>
<path d="M 95,-132 l 14,-16 l 14,16 Z" fill="#5A0FC8" opacity="0.9"/>
<path d="M 150,-70 C 215,-80 270,-45 270,5 C 270,55 215,80 165,70 C 120,60 120,-55 150,-70 Z" fill="url(#cob)"/>
<ellipse cx="262" cy="22" rx="48" ry="34" fill="#1d4ed8"/>
<path d="M 225,38 q 45,28 80,6" fill="none" stroke="#0B1020" stroke-width="6" stroke-linecap="round"/>
<circle cx="205" cy="-28" r="52" fill="url(#cob)"/>
<circle cx="205" cy="-28" r="36" fill="#F4F6FF"/>
<circle cx="218" cy="-24" r="18" fill="#3DDC84"/>
<circle cx="218" cy="-24" r="8" fill="#0B1020"/>
<circle cx="212" cy="-30" r="5" fill="#F4F6FF"/>
<rect x="26" y="6" width="12" height="12" rx="2" fill="#F4F6FF" opacity="0.11"/>
<rect x="183" y="-91" width="14" height="14" rx="2" fill="#F4F6FF" opacity="0.11"/>
<rect x="89" y="-92" width="12" height="12" rx="2" fill="#F4F6FF" opacity="0.09"/>
<rect x="120" y="-129" width="12" height="12" rx="2" fill="#F4F6FF" opacity="0.18"/>
<rect x="105" y="20" width="10" height="10" rx="2" fill="#F4F6FF" opacity="0.13"/>
<rect x="174" y="-124" width="10" height="10" rx="2" fill="#F4F6FF" opacity="0.07"/>
<rect x="-56" y="-132" width="12" height="12" rx="2" fill="#F4F6FF" opacity="0.09"/>
<rect x="80" y="-89" width="10" height="10" rx="2" fill="#F4F6FF" opacity="0.13"/>
<rect x="45" y="32" width="12" height="12" rx="2" fill="#F4F6FF" opacity="0.14"/>
<rect x="9" y="3" width="10" height="10" rx="2" fill="#F4F6FF" opacity="0.14"/>
<rect x="-27" y="-80" width="12" height="12" rx="2" fill="#F4F6FF" opacity="0.05"/>
<rect x="70" y="-112" width="10" height="10" rx="2" fill="#F4F6FF" opacity="0.16"/>
<rect x="1" y="109" width="14" height="14" rx="2" fill="#F4F6FF" opacity="0.05"/>
<rect x="-68" y="97" width="12" height="12" rx="2" fill="#F4F6FF" opacity="0.10"/>
<rect x="126" y="-31" width="14" height="14" rx="2" fill="#F4F6FF" opacity="0.13"/>
<rect x="154" y="-70" width="10" height="10" rx="2" fill="#F4F6FF" opacity="0.09"/>
<rect x="-144" y="-33" width="10" height="10" rx="2" fill="#F4F6FF" opacity="0.07"/>
<rect x="126" y="-137" width="12" height="12" rx="2" fill="#F4F6FF" opacity="0.15"/>
<rect x="-81" y="5" width="12" height="12" rx="2" fill="#F4F6FF" opacity="0.12"/>
<rect x="234" y="60" width="12" height="12" rx="2" fill="#F4F6FF" opacity="0.13"/>
<rect x="-105" y="-31" width="10" height="10" rx="2" fill="#F4F6FF" opacity="0.05"/>
<rect x="187" y="113" width="14" height="14" rx="2" fill="#F4F6FF" opacity="0.09"/>
<rect x="195" y="-85" width="12" height="12" rx="2" fill="#F4F6FF" opacity="0.18"/>
<rect x="85" y="10" width="10" height="10" rx="2" fill="#F4F6FF" opacity="0.18"/>
<rect x="-67" y="-73" width="14" height="14" rx="2" fill="#F4F6FF" opacity="0.09"/>
<rect x="-34" y="-121" width="10" height="10" rx="2" fill="#F4F6FF" opacity="0.08"/>
<rect x="98" y="-136" width="12" height="12" rx="2" fill="#F4F6FF" opacity="0.10"/>
<rect x="27" y="109" width="12" height="12" rx="2" fill="#F4F6FF" opacity="0.16"/>
<rect x="-97" y="-40" width="14" height="14" rx="2" fill="#F4F6FF" opacity="0.07"/>
<rect x="204" y="73" width="10" height="10" rx="2" fill="#F4F6FF" opacity="0.14"/>
<rect x="-88" y="24" width="14" height="14" rx="2" fill="#F4F6FF" opacity="0.08"/>
<rect x="221" y="89" width="14" height="14" rx="2" fill="#F4F6FF" opacity="0.06"/>
<rect x="-132" y="-112" width="14" height="14" rx="2" fill="#F4F6FF" opacity="0.18"/>
<rect x="-57" y="43" width="12" height="12" rx="2" fill="#F4F6FF" opacity="0.10"/>
<rect x="203" y="-12" width="14" height="14" rx="2" fill="#F4F6FF" opacity="0.07"/>
<rect x="131" y="-122" width="10" height="10" rx="2" fill="#F4F6FF" opacity="0.11"/>
<rect x="105" y="20" width="10" height="10" rx="2" fill="#F4F6FF" opacity="0.09"/>
<rect x="208" y="-87" width="10" height="10" rx="2" fill="#F4F6FF" opacity="0.06"/>
<rect x="10" y="-75" width="10" height="10" rx="2" fill="#F4F6FF" opacity="0.07"/>
<rect x="-6" y="9" width="10" height="10" rx="2" fill="#F4F6FF" opacity="0.06"/>
<rect x="-96" y="-23" width="12" height="12" rx="2" fill="#F4F6FF" opacity="0.14"/>
<rect x="120" y="12" width="10" height="10" rx="2" fill="#F4F6FF" opacity="0.13"/>
<rect x="210" y="-17" width="12" height="12" rx="2" fill="#F4F6FF" opacity="0.14"/>
<rect x="225" y="-134" width="14" height="14" rx="2" fill="#F4F6FF" opacity="0.06"/>
<rect x="-124" y="-59" width="10" height="10" rx="2" fill="#F4F6FF" opacity="0.18"/>
<g filter="url(#glow)"><rect x="-40" y="20" width="46" height="46" rx="8" fill="#3DDC84" opacity="0.95"/><circle cx="-17" cy="40" r="7" fill="#0B1020"/><rect x="-20" y="40" width="6" height="14" fill="#0B1020"/></g>
</g></g>
<text x="810" y="900" font-family="Poppins, Nunito, 'Segoe UI', system-ui, sans-serif" font-size="26" fill="#F4F6FF" text-anchor="middle" opacity="0.85">nobody even LOOKS...</text>
<text x="810" y="940" font-family="Poppins, Nunito, 'Segoe UI', system-ui, sans-serif" font-size="26" fill="#F4F6FF" text-anchor="middle" opacity="0.85">it hides in plain sight</text>
<text x="540" y="1120" font-family="Poppins, Nunito, 'Segoe UI', system-ui, sans-serif" font-size="36" font-weight="800" fill="#F4F6FF" text-anchor="middle">Cipher does <tspan fill="#3DDC84">both</tspan>.</text>
<text x="540" y="1170" font-family="Poppins, Nunito, 'Segoe UI', system-ui, sans-serif" font-size="26" fill="#3b82f6" text-anchor="middle">lock the meaning, then hide that there is a message at all</text>
</svg>