<svg xmlns="http://www.w3.org/2000/svg" viewBox="0 0 880 1100" width="880" height="1100">
<defs>
  <radialGradient id="bg" cx="50%" cy="38%" r="80%"><stop offset="0%" stop-color="#121a33"/><stop offset="100%" stop-color="#0B1020"/></radialGradient>
  <linearGradient id="cob" x1="0" y1="0" x2="0" y2="1"><stop offset="0%" stop-color="#3b82f6"/><stop offset="100%" stop-color="#1d4ed8"/></linearGradient>
  <filter id="glow" x="-60%" y="-60%" width="220%" height="220%"><feGaussianBlur stdDeviation="6" result="b"/><feMerge><feMergeNode in="b"/><feMergeNode in="SourceGraphic"/></feMerge></filter>
  <filter id="gglow" x="-80%" y="-80%" width="260%" height="260%"><feGaussianBlur stdDeviation="9"/></filter>
</defs>
<rect width="880" height="1100" fill="url(#bg)"/>
<rect x="179.2" y="102.0" width="6" height="6" rx="1" fill="#5A0FC8" opacity="0.18"/>
<rect x="708.4" y="633.9" width="4" height="4" rx="1" fill="#5A0FC8" opacity="0.11"/>
<rect x="325.4" y="601.5" width="3" height="3" rx="1" fill="#3DDC84" opacity="0.06"/>
<rect x="327.9" y="890.0" width="3" height="3" rx="1" fill="#3b82f6" opacity="0.18"/>
<rect x="47.8" y="84.7" width="2" height="2" rx="1" fill="#3b82f6" opacity="0.17"/>
<rect x="108.9" y="727.3" width="2" height="2" rx="1" fill="#2563EB" opacity="0.05"/>
<rect x="214.4" y="176.6" width="2" height="2" rx="1" fill="#3DDC84" opacity="0.24"/>
<rect x="443.7" y="1028.1" width="2" height="2" rx="1" fill="#5A0FC8" opacity="0.16"/>
<rect x="503.4" y="931.2" width="6" height="6" rx="1" fill="#3DDC84" opacity="0.14"/>
<rect x="798.4" y="732.1" width="6" height="6" rx="1" fill="#3DDC84" opacity="0.18"/>
<rect x="845.7" y="973.9" width="2" height="2" rx="1" fill="#3DDC84" opacity="0.16"/>
<rect x="377.4" y="1056.0" width="3" height="3" rx="1" fill="#5A0FC8" opacity="0.26"/>
<rect x="171.7" y="61.9" width="5" height="5" rx="1" fill="#2563EB" opacity="0.16"/>
<rect x="490.6" y="844.9" width="6" height="6" rx="1" fill="#3b82f6" opacity="0.26"/>
<rect x="685.3" y="248.1" width="6" height="6" rx="1" fill="#3b82f6" opacity="0.12"/>
<rect x="601.7" y="696.8" width="4" height="4" rx="1" fill="#2563EB" opacity="0.11"/>
<rect x="313.0" y="331.9" width="6" height="6" rx="1" fill="#2563EB" opacity="0.05"/>
<rect x="496.6" y="751.9" width="5" height="5" rx="1" fill="#2563EB" opacity="0.08"/>
<rect x="136.4" y="795.0" width="6" height="6" rx="1" fill="#2563EB" opacity="0.24"/>
<rect x="330.1" y="660.7" width="2" height="2" rx="1" fill="#3DDC84" opacity="0.07"/>
<rect x="89.4" y="802.9" width="2" height="2" rx="1" fill="#2563EB" opacity="0.09"/>
<rect x="76.0" y="1082.5" width="5" height="5" rx="1" fill="#3b82f6" opacity="0.22"/>
<rect x="713.4" y="439.6" width="2" height="2" rx="1" fill="#3DDC84" opacity="0.14"/>
<rect x="387.2" y="891.9" width="5" height="5" rx="1" fill="#3DDC84" opacity="0.19"/>
<rect x="201.7" y="709.1" width="2" height="2" rx="1" fill="#3DDC84" opacity="0.11"/>
<rect x="98.8" y="258.1" width="4" height="4" rx="1" fill="#5A0FC8" opacity="0.16"/>
<rect x="525.1" y="158.2" width="2" height="2" rx="1" fill="#5A0FC8" opacity="0.16"/>
<rect x="781.8" y="1024.4" width="6" height="6" rx="1" fill="#5A0FC8" opacity="0.13"/>
<rect x="346.9" y="199.2" width="6" height="6" rx="1" fill="#2563EB" opacity="0.11"/>
<rect x="689.6" y="256.4" width="2" height="2" rx="1" fill="#3b82f6" opacity="0.17"/>
<rect x="874.8" y="71.1" width="6" height="6" rx="1" fill="#3DDC84" opacity="0.25"/>
<rect x="200.2" y="371.5" width="5" height="5" rx="1" fill="#3DDC84" opacity="0.10"/>
<rect x="726.2" y="183.9" width="6" height="6" rx="1" fill="#2563EB" opacity="0.19"/>
<rect x="419.5" y="550.1" width="4" height="4" rx="1" fill="#2563EB" opacity="0.18"/>
<rect x="708.2" y="681.8" width="5" height="5" rx="1" fill="#3DDC84" opacity="0.11"/>
<rect x="515.8" y="3.5" width="4" height="4" rx="1" fill="#3DDC84" opacity="0.25"/>
<rect x="730.9" y="775.2" width="6" height="6" rx="1" fill="#3b82f6" opacity="0.22"/>
<rect x="751.1" y="57.9" width="5" height="5" rx="1" fill="#3DDC84" opacity="0.11"/>
<rect x="428.7" y="984.9" width="5" height="5" rx="1" fill="#5A0FC8" opacity="0.18"/>
<rect x="741.1" y="677.6" width="2" height="2" rx="1" fill="#3b82f6" opacity="0.13"/>
<rect x="678.7" y="688.0" width="3" height="3" rx="1" fill="#3b82f6" opacity="0.23"/>
<rect x="792.9" y="426.7" width="3" height="3" rx="1" fill="#3b82f6" opacity="0.22"/>
<rect x="676.1" y="278.5" width="3" height="3" rx="1" fill="#2563EB" opacity="0.22"/>
<rect x="800.9" y="37.6" width="4" height="4" rx="1" fill="#2563EB" opacity="0.07"/>
<rect x="632.8" y="343.0" width="2" height="2" rx="1" fill="#5A0FC8" opacity="0.06"/>
<rect x="787.0" y="249.8" width="3" height="3" rx="1" fill="#5A0FC8" opacity="0.13"/>
<rect x="21.8" y="664.2" width="4" height="4" rx="1" fill="#2563EB" opacity="0.20"/>
<rect x="803.4" y="8.5" width="3" height="3" rx="1" fill="#5A0FC8" opacity="0.14"/>
<rect x="436.5" y="138.1" width="6" height="6" rx="1" fill="#2563EB" opacity="0.27"/>
<rect x="224.0" y="996.9" width="5" height="5" rx="1" fill="#3b82f6" opacity="0.18"/>
<rect x="231.9" y="953.4" width="4" height="4" rx="1" fill="#5A0FC8" opacity="0.11"/>
<rect x="670.2" y="482.2" width="6" height="6" rx="1" fill="#2563EB" opacity="0.13"/>
<rect x="416.7" y="438.8" width="3" height="3" rx="1" fill="#3b82f6" opacity="0.18"/>
<rect x="56.4" y="452.0" width="2" height="2" rx="1" fill="#5A0FC8" opacity="0.18"/>
<rect x="816.4" y="392.9" width="2" height="2" rx="1" fill="#3DDC84" opacity="0.10"/>
<rect x="40" y="40" width="800" height="1020" rx="34" fill="none" stroke="#26304f" stroke-width="2"/>
<rect x="70" y="74" width="150" height="48" rx="24" fill="#3DDC84" opacity="0.16"/>
<text x="145" y="106" font-family="'JetBrains Mono','Space Mono',ui-monospace,monospace" font-size="24" fill="#3DDC84" text-anchor="middle" font-weight="700">TEXT</text>
<text x="70" y="190" font-family="Poppins, Nunito, 'Segoe UI', system-ui, sans-serif" font-size="54" font-weight="900" fill="#F4F6FF">Invisible ink</text>
<text x="70" y="232" font-family="Poppins, Nunito, 'Segoe UI', system-ui, sans-serif" font-size="26" fill="#3b82f6">of the internet</text>
<g transform="translate(150,360)"><rect x="0" y="0" width="560" height="150" rx="34" fill="#121a33" stroke="#26304f" stroke-width="2"/><path d="M 60,150 l 0,46 l 46,-46 Z" fill="#121a33"/><text x="40" y="92" font-family="Poppins, Nunito, 'Segoe UI', system-ui, sans-serif" font-size="40" fill="#F4F6FF">hey what's up :)</text></g>
<g><rect x="198" y="476" width="6" height="6" rx="1" fill="#3DDC84" opacity="0.5"/><rect x="250" y="476" width="6" height="6" rx="1" fill="#3DDC84" opacity="0.5"/><rect x="302" y="476" width="6" height="6" rx="1" fill="#3DDC84" opacity="0.5"/><rect x="354" y="476" width="6" height="6" rx="1" fill="#3DDC84" opacity="0.5"/><rect x="406" y="476" width="6" height="6" rx="1" fill="#3DDC84" opacity="0.5"/><rect x="458" y="476" width="6" height="6" rx="1" fill="#3DDC84" opacity="0.5"/><rect x="510" y="476" width="6" height="6" rx="1" fill="#3DDC84" opacity="0.5"/><rect x="562" y="476" width="6" height="6" rx="1" fill="#3DDC84" opacity="0.5"/></g>
<g filter="url(#glow)"><circle cx="650" cy="468" r="58" fill="#3DDC84" opacity="0.06"/><circle cx="650" cy="468" r="58" fill="none" stroke="#3DDC84" stroke-width="11"/><line x1="692" y1="510" x2="752" y2="570" stroke="#3DDC84" stroke-width="16" stroke-linecap="round"/></g>
<text x="70" y="632" font-family="Poppins, Nunito, 'Segoe UI', system-ui, sans-serif" font-size="24" fill="#F4F6FF" opacity="0.6">decode the gaps   -></text>
<g filter="url(#glow)"><text x="330" y="636" font-family="'JetBrains Mono','Space Mono',ui-monospace,monospace" font-size="42" fill="#3DDC84" letter-spacing="4">meet at 8</text></g>
<text x="70" y="760" font-family="Poppins, Nunito, 'Segoe UI', system-ui, sans-serif" font-size="30" fill="#F4F6FF" opacity="0.9">Text can hold real characters that</text>
<text x="70" y="800" font-family="Poppins, Nunito, 'Segoe UI', system-ui, sans-serif" font-size="30" fill="#F4F6FF" opacity="0.9">show up as <tspan fill="#3DDC84">nothing</tspan> - "zero-width"</text>
<text x="70" y="840" font-family="Poppins, Nunito, 'Segoe UI', system-ui, sans-serif" font-size="30" fill="#F4F6FF" opacity="0.9">letters. A whole message fits</text>
<text x="70" y="880" font-family="Poppins, Nunito, 'Segoe UI', system-ui, sans-serif" font-size="30" fill="#F4F6FF" opacity="0.9">in the spaces between words.</text>
<text x="70" y="975" font-family="'JetBrains Mono','Space Mono',ui-monospace,monospace" font-size="22" fill="#3b82f6">this is Cipher's Steg mode</text>
</svg>