<svg xmlns="http://www.w3.org/2000/svg" viewBox="0 0 880 1100" width="880" height="1100">
<defs>
  <radialGradient id="bg" cx="50%" cy="38%" r="80%"><stop offset="0%" stop-color="#121a33"/><stop offset="100%" stop-color="#0B1020"/></radialGradient>
  <linearGradient id="cob" x1="0" y1="0" x2="0" y2="1"><stop offset="0%" stop-color="#3b82f6"/><stop offset="100%" stop-color="#1d4ed8"/></linearGradient>
  <filter id="glow" x="-60%" y="-60%" width="220%" height="220%"><feGaussianBlur stdDeviation="6" result="b"/><feMerge><feMergeNode in="b"/><feMergeNode in="SourceGraphic"/></feMerge></filter>
  <filter id="gglow" x="-80%" y="-80%" width="260%" height="260%"><feGaussianBlur stdDeviation="9"/></filter>
</defs>
<rect width="880" height="1100" fill="url(#bg)"/>
<rect x="804.0" y="151.2" width="6" height="6" rx="1" fill="#3DDC84" opacity="0.12"/>
<rect x="334.7" y="491.2" width="6" height="6" rx="1" fill="#3b82f6" opacity="0.22"/>
<rect x="636.9" y="61.6" width="6" height="6" rx="1" fill="#2563EB" opacity="0.15"/>
<rect x="477.1" y="567.3" width="5" height="5" rx="1" fill="#3b82f6" opacity="0.11"/>
<rect x="85.1" y="710.1" width="4" height="4" rx="1" fill="#2563EB" opacity="0.28"/>
<rect x="330.9" y="13.9" width="4" height="4" rx="1" fill="#2563EB" opacity="0.05"/>
<rect x="149.7" y="997.5" width="3" height="3" rx="1" fill="#2563EB" opacity="0.14"/>
<rect x="616.4" y="491.6" width="6" height="6" rx="1" fill="#3DDC84" opacity="0.09"/>
<rect x="210.4" y="694.9" width="2" height="2" rx="1" fill="#3b82f6" opacity="0.20"/>
<rect x="715.6" y="1063.1" width="5" height="5" rx="1" fill="#5A0FC8" opacity="0.15"/>
<rect x="485.1" y="934.1" width="5" height="5" rx="1" fill="#3DDC84" opacity="0.26"/>
<rect x="259.6" y="390.3" width="4" height="4" rx="1" fill="#2563EB" opacity="0.07"/>
<rect x="577.3" y="492.5" width="6" height="6" rx="1" fill="#3b82f6" opacity="0.16"/>
<rect x="818.0" y="855.2" width="6" height="6" rx="1" fill="#5A0FC8" opacity="0.13"/>
<rect x="280.7" y="846.7" width="2" height="2" rx="1" fill="#5A0FC8" opacity="0.26"/>
<rect x="338.1" y="463.3" width="3" height="3" rx="1" fill="#5A0FC8" opacity="0.15"/>
<rect x="426.7" y="952.4" width="6" height="6" rx="1" fill="#3b82f6" opacity="0.23"/>
<rect x="472.1" y="373.5" width="4" height="4" rx="1" fill="#3b82f6" opacity="0.19"/>
<rect x="369.5" y="306.8" width="3" height="3" rx="1" fill="#5A0FC8" opacity="0.23"/>
<rect x="615.2" y="116.3" width="2" height="2" rx="1" fill="#2563EB" opacity="0.28"/>
<rect x="134.1" y="983.5" width="3" height="3" rx="1" fill="#3b82f6" opacity="0.18"/>
<rect x="167.4" y="692.3" width="4" height="4" rx="1" fill="#3b82f6" opacity="0.12"/>
<rect x="157.1" y="470.2" width="6" height="6" rx="1" fill="#2563EB" opacity="0.07"/>
<rect x="3.7" y="690.9" width="3" height="3" rx="1" fill="#3DDC84" opacity="0.12"/>
<rect x="413.1" y="374.8" width="4" height="4" rx="1" fill="#3b82f6" opacity="0.24"/>
<rect x="31.6" y="553.9" width="5" height="5" rx="1" fill="#3b82f6" opacity="0.25"/>
<rect x="101.4" y="491.2" width="6" height="6" rx="1" fill="#3b82f6" opacity="0.06"/>
<rect x="263.9" y="408.0" width="6" height="6" rx="1" fill="#3DDC84" opacity="0.20"/>
<rect x="25.5" y="163.6" width="6" height="6" rx="1" fill="#2563EB" opacity="0.15"/>
<rect x="150.4" y="827.0" width="3" height="3" rx="1" fill="#2563EB" opacity="0.14"/>
<rect x="879.0" y="1082.6" width="4" height="4" rx="1" fill="#5A0FC8" opacity="0.08"/>
<rect x="739.0" y="40.5" width="3" height="3" rx="1" fill="#3b82f6" opacity="0.21"/>
<rect x="400.7" y="664.9" width="4" height="4" rx="1" fill="#2563EB" opacity="0.16"/>
<rect x="560.8" y="431.8" width="6" height="6" rx="1" fill="#5A0FC8" opacity="0.17"/>
<rect x="398.1" y="408.4" width="6" height="6" rx="1" fill="#3DDC84" opacity="0.21"/>
<rect x="382.7" y="225.4" width="4" height="4" rx="1" fill="#2563EB" opacity="0.07"/>
<rect x="704.8" y="465.8" width="4" height="4" rx="1" fill="#3b82f6" opacity="0.25"/>
<rect x="303.0" y="428.2" width="2" height="2" rx="1" fill="#5A0FC8" opacity="0.15"/>
<rect x="311.7" y="338.1" width="4" height="4" rx="1" fill="#5A0FC8" opacity="0.19"/>
<rect x="866.3" y="417.8" width="4" height="4" rx="1" fill="#5A0FC8" opacity="0.23"/>
<rect x="465.2" y="178.9" width="3" height="3" rx="1" fill="#3b82f6" opacity="0.11"/>
<rect x="92.8" y="116.3" width="6" height="6" rx="1" fill="#3DDC84" opacity="0.22"/>
<rect x="859.8" y="117.9" width="6" height="6" rx="1" fill="#2563EB" opacity="0.09"/>
<rect x="32.5" y="390.1" width="2" height="2" rx="1" fill="#3b82f6" opacity="0.27"/>
<rect x="506.7" y="479.7" width="6" height="6" rx="1" fill="#2563EB" opacity="0.13"/>
<rect x="739.5" y="645.6" width="3" height="3" rx="1" fill="#5A0FC8" opacity="0.24"/>
<rect x="78.1" y="482.7" width="6" height="6" rx="1" fill="#3b82f6" opacity="0.20"/>
<rect x="165.4" y="517.7" width="2" height="2" rx="1" fill="#3DDC84" opacity="0.16"/>
<rect x="614.8" y="169.0" width="5" height="5" rx="1" fill="#5A0FC8" opacity="0.18"/>
<rect x="138.0" y="504.4" width="3" height="3" rx="1" fill="#2563EB" opacity="0.25"/>
<rect x="588.3" y="990.5" width="4" height="4" rx="1" fill="#5A0FC8" opacity="0.19"/>
<rect x="496.7" y="1071.5" width="6" height="6" rx="1" fill="#2563EB" opacity="0.24"/>
<rect x="755.6" y="1087.8" width="3" height="3" rx="1" fill="#3DDC84" opacity="0.17"/>
<rect x="303.9" y="153.6" width="3" height="3" rx="1" fill="#3DDC84" opacity="0.22"/>
<rect x="858.4" y="901.3" width="4" height="4" rx="1" fill="#5A0FC8" opacity="0.24"/>
<rect x="40" y="40" width="800" height="1020" rx="34" fill="none" stroke="#26304f" stroke-width="2"/>
<rect x="70" y="74" width="150" height="48" rx="24" fill="#3DDC84" opacity="0.16"/>
<text x="145" y="106" font-family="'JetBrains Mono','Space Mono',ui-monospace,monospace" font-size="24" fill="#3DDC84" text-anchor="middle" font-weight="700">FILE</text>
<text x="70" y="190" font-family="Poppins, Nunito, 'Segoe UI', system-ui, sans-serif" font-size="54" font-weight="900" fill="#F4F6FF">The secret pocket</text>
<text x="70" y="232" font-family="Poppins, Nunito, 'Segoe UI', system-ui, sans-serif" font-size="26" fill="#3b82f6">after THE END</text>
<g transform="translate(150,330)"><rect width="320" height="400" rx="18" fill="#121a33" stroke="#26304f" stroke-width="2"/><rect x="0" y="0" width="320" height="70" rx="18" fill="#2563EB"/><text x="22" y="46" font-family="'JetBrains Mono','Space Mono',ui-monospace,monospace" font-size="26" fill="#F4F6FF">meme.jpg</text><circle cx="160" cy="190" r="60" fill="#2563EB"/><circle cx="138" cy="180" r="9" fill="#F4F6FF"/><circle cx="182" cy="180" r="9" fill="#F4F6FF"/><path d="M 130,215 q 30,28 60,0" stroke="#F4F6FF" stroke-width="5" fill="none"/><text x="160" y="330" font-family="'JetBrains Mono','Space Mono',ui-monospace,monospace" font-size="26" fill="#3DDC84" text-anchor="middle">- THE END -</text></g>
<g transform="translate(500,470)" filter="url(#glow)"><rect x="0" y="0" width="250" height="230" rx="14" fill="#121a33" stroke="#3DDC84" stroke-width="3"/>
<rect x="24" y="30" width="150" height="170" rx="8" fill="#3DDC84" opacity="0.25"/>
<rect x="38" y="40" width="150" height="170" rx="8" fill="#3DDC84" opacity="0.37"/>
<rect x="52" y="50" width="150" height="170" rx="8" fill="#3DDC84" opacity="0.49"/>
<rect x="150" y="150" width="70" height="62" rx="8" fill="#3DDC84"/><text x="185" y="190" font-family="'JetBrains Mono','Space Mono',ui-monospace,monospace" font-size="22" fill="#0B1020" text-anchor="middle">zip</text></g>
<text x="500" y="450" font-family="Poppins, Nunito, 'Segoe UI', system-ui, sans-serif" font-size="24" fill="#3DDC84">secret pages stapled after -></text>
<text x="70" y="830" font-family="Poppins, Nunito, 'Segoe UI', system-ui, sans-serif" font-size="30" fill="#F4F6FF" opacity="0.9">Apps stop reading at "THE END."</text>
<text x="70" y="872" font-family="Poppins, Nunito, 'Segoe UI', system-ui, sans-serif" font-size="30" fill="#F4F6FF" opacity="0.9">So a meme can secretly <tspan fill="#3DDC84">also be a folder.</tspan></text>
</svg>