<svg xmlns="http://www.w3.org/2000/svg" viewBox="0 0 880 1100" width="880" height="1100">
<defs>
  <radialGradient id="bg" cx="50%" cy="38%" r="80%"><stop offset="0%" stop-color="#121a33"/><stop offset="100%" stop-color="#0B1020"/></radialGradient>
  <linearGradient id="cob" x1="0" y1="0" x2="0" y2="1"><stop offset="0%" stop-color="#3b82f6"/><stop offset="100%" stop-color="#1d4ed8"/></linearGradient>
  <filter id="glow" x="-60%" y="-60%" width="220%" height="220%"><feGaussianBlur stdDeviation="6" result="b"/><feMerge><feMergeNode in="b"/><feMergeNode in="SourceGraphic"/></feMerge></filter>
  <filter id="gglow" x="-80%" y="-80%" width="260%" height="260%"><feGaussianBlur stdDeviation="9"/></filter>
</defs>
<rect width="880" height="1100" fill="url(#bg)"/>
<rect x="407.4" y="410.6" width="3" height="3" rx="1" fill="#2563EB" opacity="0.09"/>
<rect x="297.7" y="510.1" width="6" height="6" rx="1" fill="#2563EB" opacity="0.07"/>
<rect x="640.8" y="186.4" width="5" height="5" rx="1" fill="#3DDC84" opacity="0.27"/>
<rect x="138.3" y="261.8" width="2" height="2" rx="1" fill="#2563EB" opacity="0.08"/>
<rect x="681.3" y="422.0" width="2" height="2" rx="1" fill="#3b82f6" opacity="0.26"/>
<rect x="593.3" y="798.3" width="5" height="5" rx="1" fill="#5A0FC8" opacity="0.25"/>
<rect x="802.0" y="436.2" width="4" height="4" rx="1" fill="#3b82f6" opacity="0.24"/>
<rect x="623.7" y="5.8" width="5" height="5" rx="1" fill="#3DDC84" opacity="0.06"/>
<rect x="744.3" y="153.1" width="3" height="3" rx="1" fill="#2563EB" opacity="0.15"/>
<rect x="848.3" y="4.3" width="6" height="6" rx="1" fill="#3b82f6" opacity="0.10"/>
<rect x="290.6" y="981.7" width="3" height="3" rx="1" fill="#2563EB" opacity="0.17"/>
<rect x="440.7" y="630.3" width="6" height="6" rx="1" fill="#3DDC84" opacity="0.26"/>
<rect x="60.6" y="211.4" width="2" height="2" rx="1" fill="#3b82f6" opacity="0.21"/>
<rect x="151.8" y="669.8" width="2" height="2" rx="1" fill="#3b82f6" opacity="0.06"/>
<rect x="655.7" y="810.6" width="6" height="6" rx="1" fill="#2563EB" opacity="0.28"/>
<rect x="764.4" y="442.6" width="3" height="3" rx="1" fill="#2563EB" opacity="0.09"/>
<rect x="647.7" y="930.2" width="6" height="6" rx="1" fill="#2563EB" opacity="0.19"/>
<rect x="763.3" y="121.0" width="6" height="6" rx="1" fill="#3b82f6" opacity="0.13"/>
<rect x="353.9" y="1084.7" width="6" height="6" rx="1" fill="#3DDC84" opacity="0.22"/>
<rect x="703.4" y="361.6" width="5" height="5" rx="1" fill="#3b82f6" opacity="0.08"/>
<rect x="390.7" y="357.2" width="2" height="2" rx="1" fill="#5A0FC8" opacity="0.12"/>
<rect x="90.7" y="862.5" width="2" height="2" rx="1" fill="#3DDC84" opacity="0.14"/>
<rect x="437.7" y="780.4" width="3" height="3" rx="1" fill="#2563EB" opacity="0.18"/>
<rect x="374.0" y="254.0" width="5" height="5" rx="1" fill="#5A0FC8" opacity="0.17"/>
<rect x="122.4" y="319.3" width="4" height="4" rx="1" fill="#3b82f6" opacity="0.06"/>
<rect x="231.4" y="180.6" width="2" height="2" rx="1" fill="#2563EB" opacity="0.19"/>
<rect x="43.0" y="495.5" width="5" height="5" rx="1" fill="#2563EB" opacity="0.12"/>
<rect x="850.5" y="390.0" width="3" height="3" rx="1" fill="#5A0FC8" opacity="0.16"/>
<rect x="120.8" y="95.2" width="6" height="6" rx="1" fill="#2563EB" opacity="0.12"/>
<rect x="57.7" y="496.5" width="6" height="6" rx="1" fill="#3DDC84" opacity="0.23"/>
<rect x="517.6" y="883.0" width="4" height="4" rx="1" fill="#3DDC84" opacity="0.23"/>
<rect x="307.0" y="1015.5" width="4" height="4" rx="1" fill="#3b82f6" opacity="0.17"/>
<rect x="702.6" y="902.4" width="3" height="3" rx="1" fill="#3b82f6" opacity="0.23"/>
<rect x="756.0" y="223.2" width="5" height="5" rx="1" fill="#3DDC84" opacity="0.16"/>
<rect x="73.2" y="603.5" width="6" height="6" rx="1" fill="#2563EB" opacity="0.27"/>
<rect x="828.3" y="31.7" width="6" height="6" rx="1" fill="#5A0FC8" opacity="0.25"/>
<rect x="460.7" y="590.8" width="2" height="2" rx="1" fill="#5A0FC8" opacity="0.25"/>
<rect x="56.6" y="246.7" width="3" height="3" rx="1" fill="#3DDC84" opacity="0.07"/>
<rect x="399.1" y="539.2" width="2" height="2" rx="1" fill="#2563EB" opacity="0.21"/>
<rect x="328.4" y="966.6" width="3" height="3" rx="1" fill="#3DDC84" opacity="0.14"/>
<rect x="770.7" y="39.6" width="6" height="6" rx="1" fill="#2563EB" opacity="0.07"/>
<rect x="596.7" y="447.3" width="2" height="2" rx="1" fill="#2563EB" opacity="0.07"/>
<rect x="535.1" y="199.4" width="2" height="2" rx="1" fill="#3DDC84" opacity="0.06"/>
<rect x="481.4" y="522.1" width="2" height="2" rx="1" fill="#5A0FC8" opacity="0.13"/>
<rect x="7.5" y="1049.4" width="6" height="6" rx="1" fill="#3DDC84" opacity="0.08"/>
<rect x="868.0" y="916.1" width="2" height="2" rx="1" fill="#3b82f6" opacity="0.26"/>
<rect x="397.3" y="142.3" width="3" height="3" rx="1" fill="#2563EB" opacity="0.08"/>
<rect x="105.7" y="1031.9" width="2" height="2" rx="1" fill="#2563EB" opacity="0.14"/>
<rect x="411.4" y="574.2" width="4" height="4" rx="1" fill="#2563EB" opacity="0.25"/>
<rect x="207.8" y="282.0" width="6" height="6" rx="1" fill="#2563EB" opacity="0.21"/>
<rect x="386.5" y="1038.3" width="2" height="2" rx="1" fill="#3DDC84" opacity="0.27"/>
<rect x="50.9" y="276.4" width="4" height="4" rx="1" fill="#3b82f6" opacity="0.19"/>
<rect x="562.3" y="749.3" width="3" height="3" rx="1" fill="#3b82f6" opacity="0.12"/>
<rect x="858.5" y="864.9" width="5" height="5" rx="1" fill="#5A0FC8" opacity="0.26"/>
<rect x="851.4" y="103.9" width="4" height="4" rx="1" fill="#3DDC84" opacity="0.15"/>
<rect x="40" y="40" width="800" height="1020" rx="34" fill="none" stroke="#26304f" stroke-width="2"/>
<rect x="70" y="74" width="150" height="48" rx="24" fill="#3DDC84" opacity="0.16"/>
<text x="145" y="106" font-family="'JetBrains Mono','Space Mono',ui-monospace,monospace" font-size="24" fill="#3DDC84" text-anchor="middle" font-weight="700">VOICE</text>
<text x="70" y="190" font-family="Poppins, Nunito, 'Segoe UI', system-ui, sans-serif" font-size="54" font-weight="900" fill="#F4F6FF">A face in the noise</text>
<text x="70" y="232" font-family="Poppins, Nunito, 'Segoe UI', system-ui, sans-serif" font-size="26" fill="#3b82f6">hidden under the sound</text>
<text x="90" y="360" font-family="Poppins, Nunito, 'Segoe UI', system-ui, sans-serif" font-size="26" fill="#F4F6FF" opacity="0.8">play it -> just noise</text>
<rect x="90" y="389.5345953201738" width="8" height="60.93080935965236" rx="4" fill="#3b82f6" opacity="0.85"/>
<rect x="106" y="394.4678437732727" width="8" height="51.064312453454626" rx="4" fill="#3b82f6" opacity="0.85"/>
<rect x="122" y="407.38033231170493" width="8" height="25.239335376590077" rx="4" fill="#3b82f6" opacity="0.85"/>
<rect x="138" y="367.33909825075125" width="8" height="105.32180349849754" rx="4" fill="#3b82f6" opacity="0.85"/>
<rect x="154" y="414.6460720255382" width="8" height="10.707855948923566" rx="4" fill="#3b82f6" opacity="0.85"/>
<rect x="170" y="387.34698559712854" width="8" height="65.30602880574293" rx="4" fill="#3b82f6" opacity="0.85"/>
<rect x="186" y="365.5936116482434" width="8" height="108.8127767035132" rx="4" fill="#3b82f6" opacity="0.85"/>
<rect x="202" y="410.5551944049349" width="8" height="18.88961119013011" rx="4" fill="#3b82f6" opacity="0.85"/>
<rect x="218" y="384.5151242501943" width="8" height="70.96975149961148" rx="4" fill="#3b82f6" opacity="0.85"/>
<rect x="234" y="381.08424765240096" width="8" height="77.83150469519803" rx="4" fill="#3b82f6" opacity="0.85"/>
<rect x="250" y="412.75073289833534" width="8" height="14.498534203329271" rx="4" fill="#3b82f6" opacity="0.85"/>
<rect x="266" y="394.15392175825104" width="8" height="51.692156483497925" rx="4" fill="#3b82f6" opacity="0.85"/>
<rect x="282" y="376.3085784238439" width="8" height="87.38284315231218" rx="4" fill="#3b82f6" opacity="0.85"/>
<rect x="298" y="390.1388493752486" width="8" height="59.72230124950283" rx="4" fill="#3b82f6" opacity="0.85"/>
<rect x="314" y="375.12140472797853" width="8" height="89.757190544043" rx="4" fill="#3b82f6" opacity="0.85"/>
<rect x="330" y="406.35635611218555" width="8" height="27.287287775628844" rx="4" fill="#3b82f6" opacity="0.85"/>
<rect x="346" y="401.9093288643407" width="8" height="36.181342271318606" rx="4" fill="#3b82f6" opacity="0.85"/>
<rect x="362" y="408.89788596120917" width="8" height="22.20422807758161" rx="4" fill="#3b82f6" opacity="0.85"/>
<rect x="378" y="387.15520215820595" width="8" height="65.68959568358805" rx="4" fill="#3b82f6" opacity="0.85"/>
<rect x="394" y="364.18936174732374" width="8" height="111.62127650535251" rx="4" fill="#3b82f6" opacity="0.85"/>
<rect x="410" y="382.5264348575248" width="8" height="74.94713028495038" rx="4" fill="#3b82f6" opacity="0.85"/>
<rect x="426" y="372.4184793020469" width="8" height="95.16304139590622" rx="4" fill="#3b82f6" opacity="0.85"/>
<rect x="442" y="393.89843353310437" width="8" height="52.2031329337913" rx="4" fill="#3b82f6" opacity="0.85"/>
<rect x="458" y="373.96476306915645" width="8" height="92.07047386168715" rx="4" fill="#3b82f6" opacity="0.85"/>
<rect x="474" y="409.4081809331287" width="8" height="21.183638133742626" rx="4" fill="#3b82f6" opacity="0.85"/>
<rect x="490" y="398.9852056557476" width="8" height="42.02958868850479" rx="4" fill="#3b82f6" opacity="0.85"/>
<rect x="506" y="377.91701993095455" width="8" height="84.16596013809084" rx="4" fill="#3b82f6" opacity="0.85"/>
<rect x="522" y="375.0861506267282" width="8" height="89.82769874654353" rx="4" fill="#3b82f6" opacity="0.85"/>
<rect x="538" y="391.8034532746175" width="8" height="56.39309345076505" rx="4" fill="#3b82f6" opacity="0.85"/>
<rect x="554" y="410.1758189313716" width="8" height="19.648362137256754" rx="4" fill="#3b82f6" opacity="0.85"/>
<rect x="570" y="400.32965358252926" width="8" height="39.34069283494145" rx="4" fill="#3b82f6" opacity="0.85"/>
<rect x="586" y="403.4560428424935" width="8" height="33.08791431501299" rx="4" fill="#3b82f6" opacity="0.85"/>
<rect x="602" y="399.5348571703487" width="8" height="40.93028565930257" rx="4" fill="#3b82f6" opacity="0.85"/>
<rect x="618" y="370.47691146004416" width="8" height="99.04617707991167" rx="4" fill="#3b82f6" opacity="0.85"/>
<rect x="634" y="404.0284228400585" width="8" height="31.943154319882982" rx="4" fill="#3b82f6" opacity="0.85"/>
<rect x="650" y="366.24801479063973" width="8" height="107.50397041872051" rx="4" fill="#3b82f6" opacity="0.85"/>
<rect x="666" y="366.63447463799025" width="8" height="106.73105072401945" rx="4" fill="#3b82f6" opacity="0.85"/>
<rect x="682" y="411.98658541389034" width="8" height="16.02682917221932" rx="4" fill="#3b82f6" opacity="0.85"/>
<rect x="698" y="394.16509787351373" width="8" height="51.66980425297254" rx="4" fill="#3b82f6" opacity="0.85"/>
<rect x="714" y="387.95585447808463" width="8" height="64.08829104383074" rx="4" fill="#3b82f6" opacity="0.85"/>
<rect x="730" y="413.7084262593066" width="8" height="12.583147481386835" rx="4" fill="#3b82f6" opacity="0.85"/>
<rect x="746" y="391.6401056536075" width="8" height="56.719788692785016" rx="4" fill="#3b82f6" opacity="0.85"/>
<rect x="762" y="365.1474155724776" width="8" height="109.70516885504482" rx="4" fill="#3b82f6" opacity="0.85"/>
<rect x="778" y="408.8374550788053" width="8" height="22.325089842389378" rx="4" fill="#3b82f6" opacity="0.85"/>
<rect x="794" y="382.1734897031404" width="8" height="75.65302059371925" rx="4" fill="#3b82f6" opacity="0.85"/>
<rect x="810" y="408.3322157558801" width="8" height="23.335568488239836" rx="4" fill="#3b82f6" opacity="0.85"/>
<text x="440" y="560" font-family="Poppins, Nunito, 'Segoe UI', system-ui, sans-serif" font-size="30" fill="#3DDC84" text-anchor="middle">now look ...</text>
<g transform="translate(150,600)"><rect width="580" height="320" rx="18" fill="#121a33" stroke="#26304f" stroke-width="2"/>
<rect x="142" y="41" width="4" height="4" fill="#5A0FC8" opacity="0.22"/>
<rect x="97" y="30" width="4" height="4" fill="#5A0FC8" opacity="0.22"/>
<rect x="524" y="250" width="4" height="4" fill="#5A0FC8" opacity="0.33"/>
<rect x="134" y="171" width="4" height="4" fill="#5A0FC8" opacity="0.18"/>
<rect x="107" y="42" width="4" height="4" fill="#5A0FC8" opacity="0.16"/>
<rect x="529" y="259" width="4" height="4" fill="#5A0FC8" opacity="0.34"/>
<rect x="458" y="68" width="4" height="4" fill="#5A0FC8" opacity="0.19"/>
<rect x="361" y="230" width="4" height="4" fill="#5A0FC8" opacity="0.36"/>
<rect x="503" y="36" width="4" height="4" fill="#5A0FC8" opacity="0.28"/>
<rect x="386" y="162" width="4" height="4" fill="#5A0FC8" opacity="0.15"/>
<rect x="275" y="37" width="4" height="4" fill="#5A0FC8" opacity="0.38"/>
<rect x="495" y="174" width="4" height="4" fill="#5A0FC8" opacity="0.19"/>
<rect x="519" y="182" width="4" height="4" fill="#5A0FC8" opacity="0.36"/>
<rect x="485" y="163" width="4" height="4" fill="#5A0FC8" opacity="0.22"/>
<rect x="345" y="139" width="4" height="4" fill="#5A0FC8" opacity="0.15"/>
<rect x="181" y="254" width="4" height="4" fill="#5A0FC8" opacity="0.11"/>
<rect x="36" y="198" width="4" height="4" fill="#5A0FC8" opacity="0.18"/>
<rect x="309" y="151" width="4" height="4" fill="#5A0FC8" opacity="0.20"/>
<rect x="568" y="69" width="4" height="4" fill="#5A0FC8" opacity="0.22"/>
<rect x="123" y="200" width="4" height="4" fill="#5A0FC8" opacity="0.18"/>
<rect x="209" y="234" width="4" height="4" fill="#5A0FC8" opacity="0.20"/>
<rect x="323" y="281" width="4" height="4" fill="#5A0FC8" opacity="0.13"/>
<rect x="45" y="79" width="4" height="4" fill="#5A0FC8" opacity="0.33"/>
<rect x="355" y="81" width="4" height="4" fill="#5A0FC8" opacity="0.20"/>
<rect x="109" y="148" width="4" height="4" fill="#5A0FC8" opacity="0.11"/>
<rect x="400" y="279" width="4" height="4" fill="#5A0FC8" opacity="0.39"/>
<rect x="422" y="298" width="4" height="4" fill="#5A0FC8" opacity="0.11"/>
<rect x="172" y="300" width="4" height="4" fill="#5A0FC8" opacity="0.33"/>
<rect x="240" y="293" width="4" height="4" fill="#5A0FC8" opacity="0.29"/>
<rect x="468" y="98" width="4" height="4" fill="#5A0FC8" opacity="0.16"/>
<rect x="259" y="51" width="4" height="4" fill="#5A0FC8" opacity="0.21"/>
<rect x="549" y="109" width="4" height="4" fill="#5A0FC8" opacity="0.10"/>
<rect x="35" y="61" width="4" height="4" fill="#5A0FC8" opacity="0.34"/>
<rect x="213" y="97" width="4" height="4" fill="#5A0FC8" opacity="0.13"/>
<rect x="560" y="137" width="4" height="4" fill="#5A0FC8" opacity="0.16"/>
<rect x="43" y="27" width="4" height="4" fill="#5A0FC8" opacity="0.15"/>
<rect x="389" y="55" width="4" height="4" fill="#5A0FC8" opacity="0.11"/>
<rect x="285" y="85" width="4" height="4" fill="#5A0FC8" opacity="0.40"/>
<rect x="78" y="169" width="4" height="4" fill="#5A0FC8" opacity="0.33"/>
<rect x="239" y="306" width="4" height="4" fill="#5A0FC8" opacity="0.24"/>
<rect x="145" y="133" width="4" height="4" fill="#5A0FC8" opacity="0.11"/>
<rect x="246" y="85" width="4" height="4" fill="#5A0FC8" opacity="0.37"/>
<rect x="475" y="160" width="4" height="4" fill="#5A0FC8" opacity="0.11"/>
<rect x="152" y="83" width="4" height="4" fill="#5A0FC8" opacity="0.16"/>
<rect x="140" y="271" width="4" height="4" fill="#5A0FC8" opacity="0.14"/>
<rect x="39" y="288" width="4" height="4" fill="#5A0FC8" opacity="0.27"/>
<rect x="565" y="131" width="4" height="4" fill="#5A0FC8" opacity="0.37"/>
<rect x="376" y="247" width="4" height="4" fill="#5A0FC8" opacity="0.32"/>
<rect x="287" y="38" width="4" height="4" fill="#5A0FC8" opacity="0.16"/>
<rect x="499" y="280" width="4" height="4" fill="#5A0FC8" opacity="0.38"/>
<rect x="198" y="207" width="4" height="4" fill="#5A0FC8" opacity="0.34"/>
<rect x="370" y="254" width="4" height="4" fill="#5A0FC8" opacity="0.26"/>
<rect x="377" y="216" width="4" height="4" fill="#5A0FC8" opacity="0.18"/>
<rect x="527" y="297" width="4" height="4" fill="#5A0FC8" opacity="0.12"/>
<rect x="554" y="299" width="4" height="4" fill="#5A0FC8" opacity="0.30"/>
<rect x="35" y="280" width="4" height="4" fill="#5A0FC8" opacity="0.14"/>
<rect x="552" y="210" width="4" height="4" fill="#5A0FC8" opacity="0.12"/>
<rect x="104" y="201" width="4" height="4" fill="#5A0FC8" opacity="0.27"/>
<rect x="428" y="288" width="4" height="4" fill="#5A0FC8" opacity="0.17"/>
<rect x="12" y="287" width="4" height="4" fill="#5A0FC8" opacity="0.10"/>
<rect x="501" y="45" width="4" height="4" fill="#5A0FC8" opacity="0.34"/>
<rect x="448" y="273" width="4" height="4" fill="#5A0FC8" opacity="0.27"/>
<rect x="502" y="71" width="4" height="4" fill="#5A0FC8" opacity="0.30"/>
<rect x="195" y="278" width="4" height="4" fill="#5A0FC8" opacity="0.33"/>
<rect x="274" y="168" width="4" height="4" fill="#5A0FC8" opacity="0.11"/>
<rect x="29" y="188" width="4" height="4" fill="#5A0FC8" opacity="0.25"/>
<rect x="494" y="192" width="4" height="4" fill="#5A0FC8" opacity="0.14"/>
<rect x="213" y="240" width="4" height="4" fill="#5A0FC8" opacity="0.26"/>
<rect x="16" y="261" width="4" height="4" fill="#5A0FC8" opacity="0.35"/>
<rect x="58" y="173" width="4" height="4" fill="#5A0FC8" opacity="0.21"/>
<rect x="451" y="103" width="4" height="4" fill="#5A0FC8" opacity="0.17"/>
<rect x="283" y="300" width="4" height="4" fill="#5A0FC8" opacity="0.13"/>
<rect x="74" y="196" width="4" height="4" fill="#5A0FC8" opacity="0.37"/>
<rect x="297" y="140" width="4" height="4" fill="#5A0FC8" opacity="0.36"/>
<rect x="445" y="30" width="4" height="4" fill="#5A0FC8" opacity="0.36"/>
<rect x="120" y="101" width="4" height="4" fill="#5A0FC8" opacity="0.35"/>
<rect x="247" y="250" width="4" height="4" fill="#5A0FC8" opacity="0.15"/>
<rect x="500" y="63" width="4" height="4" fill="#5A0FC8" opacity="0.14"/>
<rect x="287" y="112" width="4" height="4" fill="#5A0FC8" opacity="0.26"/>
<rect x="516" y="223" width="4" height="4" fill="#5A0FC8" opacity="0.10"/>
<rect x="185" y="173" width="4" height="4" fill="#5A0FC8" opacity="0.25"/>
<rect x="411" y="155" width="4" height="4" fill="#5A0FC8" opacity="0.12"/>
<rect x="147" y="264" width="4" height="4" fill="#5A0FC8" opacity="0.21"/>
<rect x="439" y="306" width="4" height="4" fill="#5A0FC8" opacity="0.29"/>
<rect x="389" y="193" width="4" height="4" fill="#5A0FC8" opacity="0.19"/>
<rect x="521" y="150" width="4" height="4" fill="#5A0FC8" opacity="0.37"/>
<rect x="181" y="270" width="4" height="4" fill="#5A0FC8" opacity="0.34"/>
<rect x="353" y="143" width="4" height="4" fill="#5A0FC8" opacity="0.14"/>
<rect x="442" y="119" width="4" height="4" fill="#5A0FC8" opacity="0.30"/>
<rect x="85" y="35" width="4" height="4" fill="#5A0FC8" opacity="0.14"/>
<rect x="463" y="63" width="4" height="4" fill="#5A0FC8" opacity="0.37"/>
<rect x="218" y="183" width="4" height="4" fill="#5A0FC8" opacity="0.21"/>
<rect x="358" y="38" width="4" height="4" fill="#5A0FC8" opacity="0.22"/>
<rect x="534" y="64" width="4" height="4" fill="#5A0FC8" opacity="0.30"/>
<rect x="193" y="100" width="4" height="4" fill="#5A0FC8" opacity="0.11"/>
<rect x="21" y="295" width="4" height="4" fill="#5A0FC8" opacity="0.35"/>
<rect x="459" y="252" width="4" height="4" fill="#5A0FC8" opacity="0.39"/>
<rect x="99" y="185" width="4" height="4" fill="#5A0FC8" opacity="0.25"/>
<rect x="331" y="291" width="4" height="4" fill="#5A0FC8" opacity="0.33"/>
<rect x="552" y="45" width="4" height="4" fill="#5A0FC8" opacity="0.30"/>
<rect x="388" y="234" width="4" height="4" fill="#5A0FC8" opacity="0.29"/>
<rect x="476" y="101" width="4" height="4" fill="#5A0FC8" opacity="0.38"/>
<rect x="237" y="190" width="4" height="4" fill="#5A0FC8" opacity="0.37"/>
<rect x="404" y="103" width="4" height="4" fill="#5A0FC8" opacity="0.17"/>
<rect x="193" y="198" width="4" height="4" fill="#5A0FC8" opacity="0.40"/>
<rect x="513" y="130" width="4" height="4" fill="#5A0FC8" opacity="0.22"/>
<rect x="468" y="95" width="4" height="4" fill="#5A0FC8" opacity="0.22"/>
<rect x="17" y="65" width="4" height="4" fill="#5A0FC8" opacity="0.26"/>
<rect x="398" y="194" width="4" height="4" fill="#5A0FC8" opacity="0.21"/>
<rect x="543" y="197" width="4" height="4" fill="#5A0FC8" opacity="0.15"/>
<rect x="48" y="302" width="4" height="4" fill="#5A0FC8" opacity="0.40"/>
<rect x="525" y="191" width="4" height="4" fill="#5A0FC8" opacity="0.19"/>
<rect x="61" y="87" width="4" height="4" fill="#5A0FC8" opacity="0.17"/>
<rect x="530" y="278" width="4" height="4" fill="#5A0FC8" opacity="0.33"/>
<rect x="93" y="82" width="4" height="4" fill="#5A0FC8" opacity="0.19"/>
<rect x="541" y="59" width="4" height="4" fill="#5A0FC8" opacity="0.34"/>
<rect x="391" y="174" width="4" height="4" fill="#5A0FC8" opacity="0.39"/>
<rect x="157" y="167" width="4" height="4" fill="#5A0FC8" opacity="0.15"/>
<rect x="64" y="20" width="4" height="4" fill="#5A0FC8" opacity="0.19"/>
<rect x="78" y="28" width="4" height="4" fill="#5A0FC8" opacity="0.40"/>
<rect x="172" y="277" width="4" height="4" fill="#5A0FC8" opacity="0.31"/>
<rect x="420" y="207" width="4" height="4" fill="#5A0FC8" opacity="0.39"/>
<rect x="502" y="226" width="4" height="4" fill="#5A0FC8" opacity="0.27"/>
<rect x="399" y="227" width="4" height="4" fill="#5A0FC8" opacity="0.27"/>
<rect x="291" y="56" width="4" height="4" fill="#5A0FC8" opacity="0.35"/>
<rect x="281" y="30" width="4" height="4" fill="#5A0FC8" opacity="0.15"/>
<rect x="500" y="87" width="4" height="4" fill="#5A0FC8" opacity="0.22"/>
<rect x="392" y="268" width="4" height="4" fill="#5A0FC8" opacity="0.20"/>
<rect x="227" y="137" width="4" height="4" fill="#5A0FC8" opacity="0.11"/>
<rect x="501" y="16" width="4" height="4" fill="#5A0FC8" opacity="0.39"/>
<rect x="95" y="57" width="4" height="4" fill="#5A0FC8" opacity="0.35"/>
<rect x="471" y="80" width="4" height="4" fill="#5A0FC8" opacity="0.27"/>
<rect x="277" y="226" width="4" height="4" fill="#5A0FC8" opacity="0.16"/>
<rect x="472" y="309" width="4" height="4" fill="#5A0FC8" opacity="0.31"/>
<rect x="526" y="291" width="4" height="4" fill="#5A0FC8" opacity="0.21"/>
<rect x="485" y="260" width="4" height="4" fill="#5A0FC8" opacity="0.28"/>
<rect x="70" y="196" width="4" height="4" fill="#5A0FC8" opacity="0.37"/>
<rect x="181" y="204" width="4" height="4" fill="#5A0FC8" opacity="0.37"/>
<rect x="346" y="21" width="4" height="4" fill="#5A0FC8" opacity="0.29"/>
<rect x="153" y="267" width="4" height="4" fill="#5A0FC8" opacity="0.30"/>
<rect x="182" y="279" width="4" height="4" fill="#5A0FC8" opacity="0.29"/>
<rect x="200" y="260" width="4" height="4" fill="#5A0FC8" opacity="0.37"/>
<rect x="510" y="275" width="4" height="4" fill="#5A0FC8" opacity="0.30"/>
<rect x="401" y="191" width="4" height="4" fill="#5A0FC8" opacity="0.26"/>
<rect x="563" y="116" width="4" height="4" fill="#5A0FC8" opacity="0.12"/>
<rect x="410" y="159" width="4" height="4" fill="#5A0FC8" opacity="0.26"/>
<rect x="345" y="85" width="4" height="4" fill="#5A0FC8" opacity="0.16"/>
<rect x="50" y="244" width="4" height="4" fill="#5A0FC8" opacity="0.37"/>
<rect x="400" y="45" width="4" height="4" fill="#5A0FC8" opacity="0.39"/>
<rect x="473" y="163" width="4" height="4" fill="#5A0FC8" opacity="0.10"/>
<rect x="483" y="197" width="4" height="4" fill="#5A0FC8" opacity="0.29"/>
<rect x="20" y="230" width="4" height="4" fill="#5A0FC8" opacity="0.11"/>
<rect x="278" y="53" width="4" height="4" fill="#5A0FC8" opacity="0.21"/>
<rect x="508" y="235" width="4" height="4" fill="#5A0FC8" opacity="0.34"/>
<rect x="177" y="127" width="4" height="4" fill="#5A0FC8" opacity="0.28"/>
<rect x="29" y="134" width="4" height="4" fill="#5A0FC8" opacity="0.39"/>
<rect x="432" y="269" width="4" height="4" fill="#5A0FC8" opacity="0.19"/>
<rect x="397" y="247" width="4" height="4" fill="#5A0FC8" opacity="0.31"/>
<rect x="255" y="62" width="4" height="4" fill="#5A0FC8" opacity="0.11"/>
<rect x="507" y="290" width="4" height="4" fill="#5A0FC8" opacity="0.18"/>
<rect x="433" y="132" width="4" height="4" fill="#5A0FC8" opacity="0.29"/>
<rect x="481" y="106" width="4" height="4" fill="#5A0FC8" opacity="0.29"/>
<rect x="153" y="163" width="4" height="4" fill="#5A0FC8" opacity="0.11"/>
<rect x="158" y="96" width="4" height="4" fill="#5A0FC8" opacity="0.37"/>
<rect x="84" y="237" width="4" height="4" fill="#5A0FC8" opacity="0.13"/>
<rect x="562" y="60" width="4" height="4" fill="#5A0FC8" opacity="0.13"/>
<rect x="128" y="290" width="4" height="4" fill="#5A0FC8" opacity="0.30"/>
<rect x="509" y="160" width="4" height="4" fill="#5A0FC8" opacity="0.13"/>
<rect x="201" y="147" width="4" height="4" fill="#5A0FC8" opacity="0.40"/>
<rect x="103" y="83" width="4" height="4" fill="#5A0FC8" opacity="0.35"/>
<rect x="74" y="301" width="4" height="4" fill="#5A0FC8" opacity="0.19"/>
<rect x="328" y="208" width="4" height="4" fill="#5A0FC8" opacity="0.37"/>
<rect x="52" y="264" width="4" height="4" fill="#5A0FC8" opacity="0.15"/>
<rect x="412" y="18" width="4" height="4" fill="#5A0FC8" opacity="0.33"/>
<rect x="111" y="72" width="4" height="4" fill="#5A0FC8" opacity="0.11"/>
<rect x="192" y="108" width="4" height="4" fill="#5A0FC8" opacity="0.39"/>
<rect x="350" y="119" width="4" height="4" fill="#5A0FC8" opacity="0.40"/>
<rect x="106" y="74" width="4" height="4" fill="#5A0FC8" opacity="0.39"/>
<rect x="543" y="215" width="4" height="4" fill="#5A0FC8" opacity="0.39"/>
<rect x="42" y="281" width="4" height="4" fill="#5A0FC8" opacity="0.31"/>
<rect x="384" y="263" width="4" height="4" fill="#5A0FC8" opacity="0.13"/>
<rect x="122" y="51" width="4" height="4" fill="#5A0FC8" opacity="0.24"/>
<rect x="316" y="172" width="4" height="4" fill="#5A0FC8" opacity="0.21"/>
<rect x="426" y="262" width="4" height="4" fill="#5A0FC8" opacity="0.33"/>
<rect x="31" y="56" width="4" height="4" fill="#5A0FC8" opacity="0.17"/>
<rect x="143" y="182" width="4" height="4" fill="#5A0FC8" opacity="0.16"/>
<rect x="360" y="113" width="4" height="4" fill="#5A0FC8" opacity="0.21"/>
<rect x="407" y="293" width="4" height="4" fill="#5A0FC8" opacity="0.16"/>
<rect x="205" y="304" width="4" height="4" fill="#5A0FC8" opacity="0.16"/>
<rect x="25" y="67" width="4" height="4" fill="#5A0FC8" opacity="0.35"/>
<rect x="420" y="292" width="4" height="4" fill="#5A0FC8" opacity="0.25"/>
<rect x="33" y="102" width="4" height="4" fill="#5A0FC8" opacity="0.32"/>
<rect x="230" y="52" width="4" height="4" fill="#5A0FC8" opacity="0.21"/>
<rect x="270" y="117" width="4" height="4" fill="#5A0FC8" opacity="0.23"/>
<rect x="86" y="19" width="4" height="4" fill="#5A0FC8" opacity="0.34"/>
<rect x="420" y="136" width="4" height="4" fill="#5A0FC8" opacity="0.13"/>
<rect x="175" y="177" width="4" height="4" fill="#5A0FC8" opacity="0.37"/>
<rect x="280" y="302" width="4" height="4" fill="#5A0FC8" opacity="0.26"/>
<rect x="111" y="195" width="4" height="4" fill="#5A0FC8" opacity="0.28"/>
<rect x="346" y="227" width="4" height="4" fill="#5A0FC8" opacity="0.11"/>
<rect x="255" y="250" width="4" height="4" fill="#5A0FC8" opacity="0.14"/>
<rect x="34" y="65" width="4" height="4" fill="#5A0FC8" opacity="0.19"/>
<rect x="254" y="104" width="4" height="4" fill="#5A0FC8" opacity="0.29"/>
<rect x="105" y="114" width="4" height="4" fill="#5A0FC8" opacity="0.30"/>
<rect x="315" y="298" width="4" height="4" fill="#5A0FC8" opacity="0.38"/>
<rect x="154" y="111" width="4" height="4" fill="#5A0FC8" opacity="0.26"/>
<rect x="315" y="120" width="4" height="4" fill="#5A0FC8" opacity="0.36"/>
<rect x="120" y="151" width="4" height="4" fill="#5A0FC8" opacity="0.14"/>
<rect x="505" y="189" width="4" height="4" fill="#5A0FC8" opacity="0.40"/>
<rect x="90" y="223" width="4" height="4" fill="#5A0FC8" opacity="0.28"/>
<rect x="39" y="256" width="4" height="4" fill="#5A0FC8" opacity="0.36"/>
<rect x="55" y="293" width="4" height="4" fill="#5A0FC8" opacity="0.34"/>
<rect x="349" y="173" width="4" height="4" fill="#5A0FC8" opacity="0.18"/>
<rect x="42" y="153" width="4" height="4" fill="#5A0FC8" opacity="0.36"/>
<rect x="127" y="152" width="4" height="4" fill="#5A0FC8" opacity="0.18"/>
<rect x="397" y="298" width="4" height="4" fill="#5A0FC8" opacity="0.37"/>
<rect x="171" y="135" width="4" height="4" fill="#5A0FC8" opacity="0.10"/>
<rect x="306" y="266" width="4" height="4" fill="#5A0FC8" opacity="0.35"/>
<rect x="50" y="140" width="4" height="4" fill="#5A0FC8" opacity="0.12"/>
<rect x="248" y="284" width="4" height="4" fill="#5A0FC8" opacity="0.19"/>
<rect x="484" y="297" width="4" height="4" fill="#5A0FC8" opacity="0.35"/>
<rect x="123" y="285" width="4" height="4" fill="#5A0FC8" opacity="0.38"/>
<rect x="569" y="13" width="4" height="4" fill="#5A0FC8" opacity="0.10"/>
<rect x="173" y="165" width="4" height="4" fill="#5A0FC8" opacity="0.23"/>
<rect x="62" y="202" width="4" height="4" fill="#5A0FC8" opacity="0.30"/>
<rect x="363" y="163" width="4" height="4" fill="#5A0FC8" opacity="0.26"/>
<rect x="396" y="29" width="4" height="4" fill="#5A0FC8" opacity="0.23"/>
<rect x="86" y="41" width="4" height="4" fill="#5A0FC8" opacity="0.33"/>
<rect x="192" y="112" width="4" height="4" fill="#5A0FC8" opacity="0.18"/>
<rect x="339" y="45" width="4" height="4" fill="#5A0FC8" opacity="0.29"/>
<rect x="49" y="297" width="4" height="4" fill="#5A0FC8" opacity="0.15"/>
<rect x="440" y="174" width="4" height="4" fill="#5A0FC8" opacity="0.23"/>
<rect x="180" y="118" width="4" height="4" fill="#5A0FC8" opacity="0.33"/>
<rect x="304" y="171" width="4" height="4" fill="#5A0FC8" opacity="0.17"/>
<rect x="360" y="61" width="4" height="4" fill="#5A0FC8" opacity="0.24"/>
<rect x="375" y="173" width="4" height="4" fill="#5A0FC8" opacity="0.27"/>
<rect x="329" y="68" width="4" height="4" fill="#5A0FC8" opacity="0.39"/>
<rect x="393" y="228" width="4" height="4" fill="#5A0FC8" opacity="0.39"/>
<rect x="263" y="110" width="4" height="4" fill="#5A0FC8" opacity="0.19"/>
<rect x="187" y="100" width="4" height="4" fill="#5A0FC8" opacity="0.19"/>
<rect x="127" y="155" width="4" height="4" fill="#5A0FC8" opacity="0.19"/>
<rect x="216" y="209" width="4" height="4" fill="#5A0FC8" opacity="0.19"/>
<rect x="493" y="249" width="4" height="4" fill="#5A0FC8" opacity="0.20"/>
<rect x="477" y="63" width="4" height="4" fill="#5A0FC8" opacity="0.13"/>
<rect x="567" y="20" width="4" height="4" fill="#5A0FC8" opacity="0.10"/>
<rect x="496" y="11" width="4" height="4" fill="#5A0FC8" opacity="0.30"/>
<rect x="321" y="77" width="4" height="4" fill="#5A0FC8" opacity="0.17"/>
<rect x="552" y="128" width="4" height="4" fill="#5A0FC8" opacity="0.17"/>
<rect x="257" y="230" width="4" height="4" fill="#5A0FC8" opacity="0.19"/>
<rect x="60" y="247" width="4" height="4" fill="#5A0FC8" opacity="0.13"/>
<rect x="41" y="11" width="4" height="4" fill="#5A0FC8" opacity="0.40"/>
<rect x="253" y="231" width="4" height="4" fill="#5A0FC8" opacity="0.27"/>
<rect x="556" y="113" width="4" height="4" fill="#5A0FC8" opacity="0.20"/>
<rect x="392" y="10" width="4" height="4" fill="#5A0FC8" opacity="0.21"/>
<rect x="435" y="182" width="4" height="4" fill="#5A0FC8" opacity="0.25"/>
<rect x="535" y="140" width="4" height="4" fill="#5A0FC8" opacity="0.32"/>
<rect x="230" y="36" width="4" height="4" fill="#5A0FC8" opacity="0.22"/>
<rect x="128" y="18" width="4" height="4" fill="#5A0FC8" opacity="0.19"/>
<rect x="81" y="147" width="4" height="4" fill="#5A0FC8" opacity="0.32"/>
<rect x="434" y="275" width="4" height="4" fill="#5A0FC8" opacity="0.20"/>
<g filter="url(#glow)" fill="none" stroke="#3DDC84" stroke-width="9"><circle cx="290" cy="160" r="95"/><circle cx="255" cy="135" r="4" fill="#3DDC84"/><circle cx="325" cy="135" r="4" fill="#3DDC84"/><path d="M 240,185 q 50,46 100,0"/></g>
</g>
<text x="440" y="985" font-family="Poppins, Nunito, 'Segoe UI', system-ui, sans-serif" font-size="27" fill="#F4F6FF" text-anchor="middle" opacity="0.9">the soundwave x-ray reveals a hidden picture</text>
</svg>