<svg xmlns="http://www.w3.org/2000/svg" viewBox="0 0 800 800" width="800" height="800">
<defs>
  <radialGradient id="bg" cx="50%" cy="38%" r="80%"><stop offset="0%" stop-color="#121a33"/><stop offset="100%" stop-color="#0B1020"/></radialGradient>
  <linearGradient id="cob" x1="0" y1="0" x2="0" y2="1"><stop offset="0%" stop-color="#3b82f6"/><stop offset="100%" stop-color="#1d4ed8"/></linearGradient>
  <filter id="glow" x="-60%" y="-60%" width="220%" height="220%"><feGaussianBlur stdDeviation="6" result="b"/><feMerge><feMergeNode in="b"/><feMergeNode in="SourceGraphic"/></feMerge></filter>
  <filter id="gglow" x="-80%" y="-80%" width="260%" height="260%"><feGaussianBlur stdDeviation="9"/></filter>
</defs>
<rect width="800" height="800" fill="url(#bg)"/>
<rect x="498.3" y="593.4" width="6" height="6" rx="1" fill="#3DDC84" opacity="0.06"/>
<rect x="620.8" y="199.2" width="2" height="2" rx="1" fill="#2563EB" opacity="0.26"/>
<rect x="297.4" y="694.8" width="5" height="5" rx="1" fill="#3b82f6" opacity="0.18"/>
<rect x="10.5" y="173.4" width="4" height="4" rx="1" fill="#3DDC84" opacity="0.09"/>
<rect x="127.7" y="637.7" width="3" height="3" rx="1" fill="#3DDC84" opacity="0.19"/>
<rect x="101.4" y="1.4" width="2" height="2" rx="1" fill="#3b82f6" opacity="0.10"/>
<rect x="768.1" y="132.7" width="3" height="3" rx="1" fill="#3b82f6" opacity="0.12"/>
<rect x="431.4" y="542.3" width="3" height="3" rx="1" fill="#3b82f6" opacity="0.09"/>
<rect x="773.3" y="715.0" width="4" height="4" rx="1" fill="#3DDC84" opacity="0.05"/>
<rect x="132.8" y="116.6" width="2" height="2" rx="1" fill="#2563EB" opacity="0.13"/>
<rect x="476.8" y="566.1" width="2" height="2" rx="1" fill="#5A0FC8" opacity="0.12"/>
<rect x="384.6" y="252.6" width="5" height="5" rx="1" fill="#3b82f6" opacity="0.16"/>
<rect x="45.6" y="780.1" width="2" height="2" rx="1" fill="#5A0FC8" opacity="0.27"/>
<rect x="675.9" y="14.5" width="5" height="5" rx="1" fill="#2563EB" opacity="0.13"/>
<rect x="362.3" y="566.2" width="6" height="6" rx="1" fill="#3b82f6" opacity="0.27"/>
<rect x="95.2" y="196.9" width="5" height="5" rx="1" fill="#5A0FC8" opacity="0.13"/>
<rect x="714.2" y="200.7" width="5" height="5" rx="1" fill="#5A0FC8" opacity="0.07"/>
<rect x="687.8" y="29.3" width="2" height="2" rx="1" fill="#5A0FC8" opacity="0.10"/>
<rect x="734.5" y="272.0" width="6" height="6" rx="1" fill="#5A0FC8" opacity="0.07"/>
<rect x="244.9" y="639.0" width="3" height="3" rx="1" fill="#5A0FC8" opacity="0.22"/>
<rect x="797.4" y="129.2" width="2" height="2" rx="1" fill="#3DDC84" opacity="0.07"/>
<rect x="25.5" y="592.4" width="4" height="4" rx="1" fill="#3DDC84" opacity="0.24"/>
<rect x="520.8" y="116.5" width="2" height="2" rx="1" fill="#5A0FC8" opacity="0.23"/>
<rect x="670.7" y="104.5" width="6" height="6" rx="1" fill="#3DDC84" opacity="0.27"/>
<rect x="85.3" y="347.6" width="3" height="3" rx="1" fill="#3DDC84" opacity="0.06"/>
<rect x="235.9" y="362.5" width="6" height="6" rx="1" fill="#3DDC84" opacity="0.25"/>
<rect x="768.1" y="551.1" width="4" height="4" rx="1" fill="#5A0FC8" opacity="0.16"/>
<rect x="376.1" y="721.5" width="2" height="2" rx="1" fill="#3b82f6" opacity="0.14"/>
<rect x="501.6" y="399.5" width="4" height="4" rx="1" fill="#3DDC84" opacity="0.09"/>
<rect x="217.8" y="625.6" width="6" height="6" rx="1" fill="#5A0FC8" opacity="0.13"/>
<rect x="555.7" y="531.2" width="4" height="4" rx="1" fill="#5A0FC8" opacity="0.13"/>
<rect x="668.2" y="211.9" width="4" height="4" rx="1" fill="#5A0FC8" opacity="0.27"/>
<rect x="519.8" y="464.5" width="2" height="2" rx="1" fill="#5A0FC8" opacity="0.16"/>
<rect x="260.7" y="218.9" width="4" height="4" rx="1" fill="#5A0FC8" opacity="0.24"/>
<rect x="278.3" y="515.3" width="5" height="5" rx="1" fill="#3b82f6" opacity="0.13"/>
<rect x="695.9" y="550.7" width="4" height="4" rx="1" fill="#3b82f6" opacity="0.27"/>
<rect x="423.5" y="132.9" width="4" height="4" rx="1" fill="#3DDC84" opacity="0.27"/>
<rect x="226.3" y="63.1" width="5" height="5" rx="1" fill="#3DDC84" opacity="0.09"/>
<rect x="242.1" y="442.6" width="4" height="4" rx="1" fill="#2563EB" opacity="0.22"/>
<rect x="156.5" y="469.2" width="6" height="6" rx="1" fill="#3b82f6" opacity="0.20"/>
<rect x="607.2" y="144.4" width="2" height="2" rx="1" fill="#3b82f6" opacity="0.28"/>
<rect x="132.6" y="713.4" width="2" height="2" rx="1" fill="#3b82f6" opacity="0.12"/>
<rect x="386.1" y="438.7" width="5" height="5" rx="1" fill="#3DDC84" opacity="0.16"/>
<rect x="530.0" y="57.6" width="3" height="3" rx="1" fill="#5A0FC8" opacity="0.10"/>
<rect x="0.5" y="324.3" width="4" height="4" rx="1" fill="#2563EB" opacity="0.25"/>
<rect x="551.1" y="437.8" width="2" height="2" rx="1" fill="#5A0FC8" opacity="0.18"/>
<rect x="75.9" y="436.2" width="4" height="4" rx="1" fill="#5A0FC8" opacity="0.27"/>
<rect x="766.6" y="654.8" width="5" height="5" rx="1" fill="#5A0FC8" opacity="0.14"/>
<rect x="374.0" y="125.4" width="5" height="5" rx="1" fill="#3b82f6" opacity="0.18"/>
<rect x="774.4" y="486.9" width="4" height="4" rx="1" fill="#2563EB" opacity="0.24"/>
<rect x="305.5" y="260.8" width="6" height="6" rx="1" fill="#5A0FC8" opacity="0.17"/>
<rect x="503.6" y="713.0" width="5" height="5" rx="1" fill="#3b82f6" opacity="0.15"/>
<rect x="394.7" y="383.7" width="5" height="5" rx="1" fill="#3b82f6" opacity="0.14"/>
<rect x="476.6" y="207.9" width="4" height="4" rx="1" fill="#3DDC84" opacity="0.16"/>
<rect x="15.7" y="756.1" width="4" height="4" rx="1" fill="#5A0FC8" opacity="0.16"/>
<rect x="114.6" y="19.0" width="6" height="6" rx="1" fill="#3b82f6" opacity="0.27"/>
<rect x="234.5" y="625.4" width="5" height="5" rx="1" fill="#5A0FC8" opacity="0.05"/>
<rect x="194.8" y="379.4" width="2" height="2" rx="1" fill="#5A0FC8" opacity="0.11"/>
<rect x="675.1" y="577.2" width="4" height="4" rx="1" fill="#3DDC84" opacity="0.12"/>
<rect x="414.6" y="690.8" width="2" height="2" rx="1" fill="#3b82f6" opacity="0.05"/>
<rect x="80" y="600" width="640" height="34" rx="17" fill="#5A0FC8" opacity="0.55"/>
<g transform="translate(400,470) scale(1.25)">
<path d="M -150,30 C -230,30 -250,-70 -180,-90 C -120,-105 -120,-30 -160,-25 C -185,-22 -185,-55 -165,-58" fill="none" stroke="url(#cob)" stroke-width="34" stroke-linecap="round"/>
<rect x="-267" y="-85" width="10" height="10" rx="2" fill="#3b82f6" opacity="0.90"/>
<rect x="-314" y="-93" width="6" height="6" rx="2" fill="#3b82f6" opacity="0.85"/>
<rect x="-292" y="-41" width="12" height="12" rx="2" fill="#3b82f6" opacity="0.80"/>
<rect x="-268" y="-122" width="12" height="12" rx="2" fill="#3b82f6" opacity="0.75"/>
<rect x="-288" y="-84" width="12" height="12" rx="2" fill="#3b82f6" opacity="0.70"/>
<rect x="-295" y="-132" width="8" height="8" rx="2" fill="#3b82f6" opacity="0.65"/>
<rect x="-311" y="-87" width="6" height="6" rx="2" fill="#3b82f6" opacity="0.60"/>
<rect x="-297" y="-142" width="6" height="6" rx="2" fill="#3b82f6" opacity="0.55"/>
<rect x="-271" y="-146" width="10" height="10" rx="2" fill="#3b82f6" opacity="0.50"/>
<rect x="-283" y="-64" width="12" height="12" rx="2" fill="#3b82f6" opacity="0.45"/>
<rect x="-300" y="-39" width="12" height="12" rx="2" fill="#3b82f6" opacity="0.40"/>
<rect x="-301" y="-81" width="8" height="8" rx="2" fill="#3b82f6" opacity="0.35"/>
<rect x="-312" y="-138" width="8" height="8" rx="2" fill="#3b82f6" opacity="0.30"/>
<rect x="-285" y="-119" width="12" height="12" rx="2" fill="#3b82f6" opacity="0.25"/>
<rect x="-305" y="-47" width="12" height="12" rx="2" fill="#3b82f6" opacity="0.20"/>
<rect x="-286" y="-104" width="10" height="10" rx="2" fill="#3b82f6" opacity="0.15"/>
<path d="M -40,95 q -18,55 -55,70" fill="none" stroke="#1d4ed8" stroke-width="26" stroke-linecap="round"/>
<path d="M 70,95 q 18,55 55,70" fill="none" stroke="#1d4ed8" stroke-width="26" stroke-linecap="round"/>
<path d="M -160,10 C -150,-90 -60,-150 30,-150 C 130,-150 195,-95 205,-30 C 212,15 175,70 150,95 C 90,150 -70,150 -120,110 C -160,80 -168,55 -160,10 Z" fill="url(#cob)"/>
<path d="M -120,75 C -60,140 90,140 145,90 C 110,120 -70,128 -120,75 Z" fill="#3b82f6" opacity="0.55"/>
<path d="M -120,-138 l 14,-18 l 14,18 Z" fill="#5A0FC8" opacity="0.9"/>
<path d="M -80,-144 l 14,-20 l 14,20 Z" fill="#5A0FC8" opacity="0.9"/>
<path d="M -38,-150 l 14,-22 l 14,22 Z" fill="#5A0FC8" opacity="0.9"/>
<path d="M 5,-144 l 14,-20 l 14,20 Z" fill="#5A0FC8" opacity="0.9"/>
<path d="M 50,-138 l 14,-18 l 14,18 Z" fill="#5A0FC8" opacity="0.9"/>
<path d="M 95,-132 l 14,-16 l 14,16 Z" fill="#5A0FC8" opacity="0.9"/>
<path d="M 150,-70 C 215,-80 270,-45 270,5 C 270,55 215,80 165,70 C 120,60 120,-55 150,-70 Z" fill="url(#cob)"/>
<ellipse cx="262" cy="22" rx="48" ry="34" fill="#1d4ed8"/>
<path d="M 225,38 q 45,28 80,6" fill="none" stroke="#0B1020" stroke-width="6" stroke-linecap="round"/>
<circle cx="205" cy="-28" r="52" fill="url(#cob)"/>
<circle cx="205" cy="-28" r="36" fill="#F4F6FF"/>
<circle cx="218" cy="-24" r="18" fill="#3DDC84"/>
<circle cx="218" cy="-24" r="8" fill="#0B1020"/>
<circle cx="212" cy="-30" r="5" fill="#F4F6FF"/>
<rect x="26" y="6" width="12" height="12" rx="2" fill="#F4F6FF" opacity="0.11"/>
<rect x="183" y="-91" width="14" height="14" rx="2" fill="#F4F6FF" opacity="0.11"/>
<rect x="89" y="-92" width="12" height="12" rx="2" fill="#F4F6FF" opacity="0.09"/>
<rect x="120" y="-129" width="12" height="12" rx="2" fill="#F4F6FF" opacity="0.18"/>
<rect x="105" y="20" width="10" height="10" rx="2" fill="#F4F6FF" opacity="0.13"/>
<rect x="174" y="-124" width="10" height="10" rx="2" fill="#F4F6FF" opacity="0.07"/>
<rect x="-56" y="-132" width="12" height="12" rx="2" fill="#F4F6FF" opacity="0.09"/>
<rect x="80" y="-89" width="10" height="10" rx="2" fill="#F4F6FF" opacity="0.13"/>
<rect x="45" y="32" width="12" height="12" rx="2" fill="#F4F6FF" opacity="0.14"/>
<rect x="9" y="3" width="10" height="10" rx="2" fill="#F4F6FF" opacity="0.14"/>
<rect x="-27" y="-80" width="12" height="12" rx="2" fill="#F4F6FF" opacity="0.05"/>
<rect x="70" y="-112" width="10" height="10" rx="2" fill="#F4F6FF" opacity="0.16"/>
<rect x="1" y="109" width="14" height="14" rx="2" fill="#F4F6FF" opacity="0.05"/>
<rect x="-68" y="97" width="12" height="12" rx="2" fill="#F4F6FF" opacity="0.10"/>
<rect x="126" y="-31" width="14" height="14" rx="2" fill="#F4F6FF" opacity="0.13"/>
<rect x="154" y="-70" width="10" height="10" rx="2" fill="#F4F6FF" opacity="0.09"/>
<rect x="-144" y="-33" width="10" height="10" rx="2" fill="#F4F6FF" opacity="0.07"/>
<rect x="126" y="-137" width="12" height="12" rx="2" fill="#F4F6FF" opacity="0.15"/>
<rect x="-81" y="5" width="12" height="12" rx="2" fill="#F4F6FF" opacity="0.12"/>
<rect x="234" y="60" width="12" height="12" rx="2" fill="#F4F6FF" opacity="0.13"/>
<rect x="-105" y="-31" width="10" height="10" rx="2" fill="#F4F6FF" opacity="0.05"/>
<rect x="187" y="113" width="14" height="14" rx="2" fill="#F4F6FF" opacity="0.09"/>
<rect x="195" y="-85" width="12" height="12" rx="2" fill="#F4F6FF" opacity="0.18"/>
<rect x="85" y="10" width="10" height="10" rx="2" fill="#F4F6FF" opacity="0.18"/>
<rect x="-67" y="-73" width="14" height="14" rx="2" fill="#F4F6FF" opacity="0.09"/>
<rect x="-34" y="-121" width="10" height="10" rx="2" fill="#F4F6FF" opacity="0.08"/>
<rect x="98" y="-136" width="12" height="12" rx="2" fill="#F4F6FF" opacity="0.10"/>
<rect x="27" y="109" width="12" height="12" rx="2" fill="#F4F6FF" opacity="0.16"/>
<rect x="-97" y="-40" width="14" height="14" rx="2" fill="#F4F6FF" opacity="0.07"/>
<rect x="204" y="73" width="10" height="10" rx="2" fill="#F4F6FF" opacity="0.14"/>
<rect x="-88" y="24" width="14" height="14" rx="2" fill="#F4F6FF" opacity="0.08"/>
<rect x="221" y="89" width="14" height="14" rx="2" fill="#F4F6FF" opacity="0.06"/>
<rect x="-132" y="-112" width="14" height="14" rx="2" fill="#F4F6FF" opacity="0.18"/>
<rect x="-57" y="43" width="12" height="12" rx="2" fill="#F4F6FF" opacity="0.10"/>
<rect x="203" y="-12" width="14" height="14" rx="2" fill="#F4F6FF" opacity="0.07"/>
<rect x="131" y="-122" width="10" height="10" rx="2" fill="#F4F6FF" opacity="0.11"/>
<rect x="105" y="20" width="10" height="10" rx="2" fill="#F4F6FF" opacity="0.09"/>
<rect x="208" y="-87" width="10" height="10" rx="2" fill="#F4F6FF" opacity="0.06"/>
<rect x="10" y="-75" width="10" height="10" rx="2" fill="#F4F6FF" opacity="0.07"/>
<rect x="-6" y="9" width="10" height="10" rx="2" fill="#F4F6FF" opacity="0.06"/>
<rect x="-96" y="-23" width="12" height="12" rx="2" fill="#F4F6FF" opacity="0.14"/>
<rect x="120" y="12" width="10" height="10" rx="2" fill="#F4F6FF" opacity="0.13"/>
<rect x="210" y="-17" width="12" height="12" rx="2" fill="#F4F6FF" opacity="0.14"/>
<rect x="225" y="-134" width="14" height="14" rx="2" fill="#F4F6FF" opacity="0.06"/>
<rect x="-124" y="-59" width="10" height="10" rx="2" fill="#F4F6FF" opacity="0.18"/>
<g filter="url(#glow)"><rect x="-40" y="20" width="46" height="46" rx="8" fill="#3DDC84" opacity="0.95"/><circle cx="-17" cy="40" r="7" fill="#0B1020"/><rect x="-20" y="40" width="6" height="14" fill="#0B1020"/></g>
</g>
<text x="400" y="710" font-family="Poppins, Nunito, 'Segoe UI', system-ui, sans-serif" font-size="46" font-weight="800" fill="#F4F6FF" text-anchor="middle">Steg</text>
<text x="400" y="748" font-family="Poppins, Nunito, 'Segoe UI', system-ui, sans-serif" font-size="22" fill="#3b82f6" text-anchor="middle" letter-spacing="3">HIDES IN PLAIN SIGHT</text>
</svg>