<svg xmlns="http://www.w3.org/2000/svg" viewBox="0 0 1080 1080" width="1080" height="1080">
<defs>
  <radialGradient id="bg" cx="50%" cy="38%" r="80%"><stop offset="0%" stop-color="#121a33"/><stop offset="100%" stop-color="#0B1020"/></radialGradient>
  <linearGradient id="cob" x1="0" y1="0" x2="0" y2="1"><stop offset="0%" stop-color="#3b82f6"/><stop offset="100%" stop-color="#1d4ed8"/></linearGradient>
  <filter id="glow" x="-60%" y="-60%" width="220%" height="220%"><feGaussianBlur stdDeviation="6" result="b"/><feMerge><feMergeNode in="b"/><feMergeNode in="SourceGraphic"/></feMerge></filter>
  <filter id="gglow" x="-80%" y="-80%" width="260%" height="260%"><feGaussianBlur stdDeviation="9"/></filter>
</defs>
<rect width="1080" height="1080" fill="url(#bg)"/>
<rect x="244.8" y="1039.3" width="3" height="3" rx="1" fill="#2563EB" opacity="0.09"/>
<rect x="92.0" y="267.2" width="6" height="6" rx="1" fill="#2563EB" opacity="0.10"/>
<rect x="495.9" y="489.4" width="5" height="5" rx="1" fill="#3DDC84" opacity="0.18"/>
<rect x="96.7" y="252.9" width="2" height="2" rx="1" fill="#3DDC84" opacity="0.21"/>
<rect x="512.3" y="984.1" width="2" height="2" rx="1" fill="#2563EB" opacity="0.20"/>
<rect x="1070.9" y="68.1" width="6" height="6" rx="1" fill="#2563EB" opacity="0.24"/>
<rect x="713.7" y="365.5" width="2" height="2" rx="1" fill="#3b82f6" opacity="0.16"/>
<rect x="628.1" y="153.5" width="2" height="2" rx="1" fill="#2563EB" opacity="0.17"/>
<rect x="527.8" y="209.4" width="6" height="6" rx="1" fill="#3DDC84" opacity="0.15"/>
<rect x="308.5" y="385.2" width="5" height="5" rx="1" fill="#2563EB" opacity="0.08"/>
<rect x="574.4" y="338.9" width="4" height="4" rx="1" fill="#3DDC84" opacity="0.27"/>
<rect x="543.9" y="213.5" width="3" height="3" rx="1" fill="#5A0FC8" opacity="0.13"/>
<rect x="550.6" y="77.1" width="6" height="6" rx="1" fill="#3b82f6" opacity="0.26"/>
<rect x="371.7" y="980.5" width="4" height="4" rx="1" fill="#5A0FC8" opacity="0.13"/>
<rect x="36.3" y="275.2" width="4" height="4" rx="1" fill="#3DDC84" opacity="0.24"/>
<rect x="189.3" y="428.0" width="3" height="3" rx="1" fill="#2563EB" opacity="0.26"/>
<rect x="218.0" y="827.8" width="4" height="4" rx="1" fill="#3DDC84" opacity="0.08"/>
<rect x="369.2" y="183.8" width="5" height="5" rx="1" fill="#3b82f6" opacity="0.26"/>
<rect x="442.9" y="481.7" width="5" height="5" rx="1" fill="#2563EB" opacity="0.07"/>
<rect x="311.8" y="102.7" width="2" height="2" rx="1" fill="#5A0FC8" opacity="0.20"/>
<rect x="165.9" y="1011.4" width="5" height="5" rx="1" fill="#2563EB" opacity="0.21"/>
<rect x="204.9" y="985.6" width="4" height="4" rx="1" fill="#2563EB" opacity="0.14"/>
<rect x="803.3" y="379.6" width="4" height="4" rx="1" fill="#3DDC84" opacity="0.05"/>
<rect x="226.9" y="945.2" width="2" height="2" rx="1" fill="#3b82f6" opacity="0.25"/>
<rect x="192.0" y="1047.5" width="5" height="5" rx="1" fill="#3b82f6" opacity="0.08"/>
<rect x="653.8" y="537.0" width="5" height="5" rx="1" fill="#3DDC84" opacity="0.23"/>
<rect x="131.8" y="627.2" width="5" height="5" rx="1" fill="#3DDC84" opacity="0.20"/>
<rect x="555.6" y="97.7" width="5" height="5" rx="1" fill="#5A0FC8" opacity="0.18"/>
<rect x="491.8" y="55.0" width="2" height="2" rx="1" fill="#2563EB" opacity="0.15"/>
<rect x="228.1" y="5.0" width="6" height="6" rx="1" fill="#2563EB" opacity="0.19"/>
<rect x="707.6" y="895.6" width="6" height="6" rx="1" fill="#3b82f6" opacity="0.07"/>
<rect x="541.7" y="350.0" width="5" height="5" rx="1" fill="#3b82f6" opacity="0.22"/>
<rect x="7.2" y="662.2" width="2" height="2" rx="1" fill="#3DDC84" opacity="0.22"/>
<rect x="241.6" y="320.1" width="6" height="6" rx="1" fill="#5A0FC8" opacity="0.15"/>
<rect x="871.3" y="800.0" width="4" height="4" rx="1" fill="#5A0FC8" opacity="0.17"/>
<rect x="845.9" y="319.5" width="2" height="2" rx="1" fill="#5A0FC8" opacity="0.10"/>
<rect x="408.9" y="631.8" width="4" height="4" rx="1" fill="#3DDC84" opacity="0.10"/>
<rect x="662.1" y="910.0" width="6" height="6" rx="1" fill="#5A0FC8" opacity="0.27"/>
<rect x="886.6" y="653.3" width="4" height="4" rx="1" fill="#3b82f6" opacity="0.20"/>
<rect x="529.1" y="571.2" width="2" height="2" rx="1" fill="#2563EB" opacity="0.11"/>
<rect x="538.1" y="935.7" width="5" height="5" rx="1" fill="#5A0FC8" opacity="0.23"/>
<rect x="1065.7" y="296.0" width="6" height="6" rx="1" fill="#3DDC84" opacity="0.11"/>
<rect x="264.1" y="265.4" width="3" height="3" rx="1" fill="#3DDC84" opacity="0.23"/>
<rect x="269.9" y="878.3" width="6" height="6" rx="1" fill="#3b82f6" opacity="0.17"/>
<rect x="397.4" y="843.2" width="2" height="2" rx="1" fill="#3b82f6" opacity="0.14"/>
<rect x="842.7" y="1072.5" width="2" height="2" rx="1" fill="#3b82f6" opacity="0.23"/>
<rect x="23.9" y="206.5" width="4" height="4" rx="1" fill="#3DDC84" opacity="0.07"/>
<rect x="496.5" y="722.8" width="4" height="4" rx="1" fill="#2563EB" opacity="0.26"/>
<rect x="136.4" y="386.2" width="2" height="2" rx="1" fill="#2563EB" opacity="0.12"/>
<rect x="902.5" y="90.7" width="3" height="3" rx="1" fill="#5A0FC8" opacity="0.20"/>
<rect x="1074.5" y="81.0" width="3" height="3" rx="1" fill="#5A0FC8" opacity="0.22"/>
<rect x="240.1" y="803.6" width="4" height="4" rx="1" fill="#2563EB" opacity="0.07"/>
<rect x="989.8" y="658.3" width="5" height="5" rx="1" fill="#5A0FC8" opacity="0.09"/>
<rect x="965.0" y="160.7" width="2" height="2" rx="1" fill="#3b82f6" opacity="0.07"/>
<rect x="88.7" y="999.0" width="4" height="4" rx="1" fill="#2563EB" opacity="0.22"/>
<rect x="1021.2" y="61.8" width="3" height="3" rx="1" fill="#5A0FC8" opacity="0.24"/>
<rect x="319.0" y="261.6" width="6" height="6" rx="1" fill="#2563EB" opacity="0.16"/>
<rect x="1077.1" y="1005.7" width="3" height="3" rx="1" fill="#3b82f6" opacity="0.10"/>
<rect x="440.4" y="182.5" width="5" height="5" rx="1" fill="#3DDC84" opacity="0.06"/>
<rect x="632.4" y="662.9" width="5" height="5" rx="1" fill="#3DDC84" opacity="0.24"/>
<rect x="624.6" y="968.3" width="4" height="4" rx="1" fill="#3DDC84" opacity="0.21"/>
<rect x="938.0" y="793.3" width="6" height="6" rx="1" fill="#5A0FC8" opacity="0.09"/>
<rect x="734.5" y="513.9" width="3" height="3" rx="1" fill="#5A0FC8" opacity="0.24"/>
<rect x="539.9" y="1049.3" width="6" height="6" rx="1" fill="#5A0FC8" opacity="0.23"/>
<rect x="871.5" y="614.0" width="5" height="5" rx="1" fill="#3DDC84" opacity="0.23"/>
<rect x="699.2" y="134.2" width="5" height="5" rx="1" fill="#5A0FC8" opacity="0.06"/>
<rect x="547.1" y="319.8" width="5" height="5" rx="1" fill="#3b82f6" opacity="0.21"/>
<rect x="896.7" y="15.6" width="3" height="3" rx="1" fill="#3b82f6" opacity="0.15"/>
<rect x="829.2" y="909.0" width="6" height="6" rx="1" fill="#2563EB" opacity="0.19"/>
<rect x="402.5" y="542.6" width="6" height="6" rx="1" fill="#5A0FC8" opacity="0.21"/>
<rect x="1064.7" y="386.8" width="4" height="4" rx="1" fill="#3DDC84" opacity="0.20"/>
<rect x="910.8" y="697.9" width="5" height="5" rx="1" fill="#5A0FC8" opacity="0.13"/>
<rect x="1007.3" y="813.6" width="5" height="5" rx="1" fill="#2563EB" opacity="0.14"/>
<rect x="793.3" y="1003.1" width="4" height="4" rx="1" fill="#3b82f6" opacity="0.06"/>
<rect x="550.7" y="522.3" width="5" height="5" rx="1" fill="#5A0FC8" opacity="0.18"/>
<rect x="150.7" y="287.8" width="2" height="2" rx="1" fill="#5A0FC8" opacity="0.23"/>
<rect x="630.8" y="281.7" width="4" height="4" rx="1" fill="#3DDC84" opacity="0.12"/>
<rect x="482.9" y="679.5" width="5" height="5" rx="1" fill="#3DDC84" opacity="0.26"/>
<rect x="368.3" y="624.7" width="2" height="2" rx="1" fill="#3DDC84" opacity="0.13"/>
<rect x="390.7" y="618.8" width="3" height="3" rx="1" fill="#3b82f6" opacity="0.18"/>
<rect x="844.6" y="544.6" width="2" height="2" rx="1" fill="#5A0FC8" opacity="0.07"/>
<rect x="235.1" y="686.9" width="4" height="4" rx="1" fill="#3b82f6" opacity="0.27"/>
<rect x="1032.6" y="15.1" width="5" height="5" rx="1" fill="#3b82f6" opacity="0.22"/>
<rect x="341.7" y="30.1" width="2" height="2" rx="1" fill="#3b82f6" opacity="0.22"/>
<rect x="622.0" y="691.8" width="2" height="2" rx="1" fill="#3b82f6" opacity="0.06"/>
<rect x="355.4" y="923.0" width="5" height="5" rx="1" fill="#2563EB" opacity="0.10"/>
<rect x="939.1" y="736.1" width="6" height="6" rx="1" fill="#3DDC84" opacity="0.17"/>
<rect x="989.3" y="816.5" width="5" height="5" rx="1" fill="#3DDC84" opacity="0.26"/>
<rect x="547.1" y="80.5" width="4" height="4" rx="1" fill="#3DDC84" opacity="0.27"/>
<rect x="709.4" y="273.2" width="3" height="3" rx="1" fill="#5A0FC8" opacity="0.28"/>
<rect x="69.4" y="527.3" width="3" height="3" rx="1" fill="#3DDC84" opacity="0.10"/>
<rect x="893.6" y="334.0" width="4" height="4" rx="1" fill="#2563EB" opacity="0.17"/>
<rect x="438.5" y="225.1" width="3" height="3" rx="1" fill="#3DDC84" opacity="0.09"/>
<rect x="168.4" y="890.8" width="3" height="3" rx="1" fill="#2563EB" opacity="0.20"/>
<rect x="469.7" y="964.4" width="6" height="6" rx="1" fill="#3DDC84" opacity="0.21"/>
<rect x="938.8" y="1048.4" width="6" height="6" rx="1" fill="#3b82f6" opacity="0.08"/>
<rect x="506.4" y="238.9" width="4" height="4" rx="1" fill="#3b82f6" opacity="0.19"/>
<rect x="599.7" y="1017.3" width="5" height="5" rx="1" fill="#3b82f6" opacity="0.22"/>
<rect x="364.8" y="138.7" width="4" height="4" rx="1" fill="#5A0FC8" opacity="0.07"/>
<rect x="1072.1" y="152.3" width="3" height="3" rx="1" fill="#3DDC84" opacity="0.22"/>
<rect x="907.1" y="995.4" width="5" height="5" rx="1" fill="#5A0FC8" opacity="0.13"/>
<rect x="128.0" y="417.0" width="5" height="5" rx="1" fill="#2563EB" opacity="0.14"/>
<rect x="526.4" y="591.8" width="3" height="3" rx="1" fill="#2563EB" opacity="0.05"/>
<rect x="1020.3" y="655.9" width="6" height="6" rx="1" fill="#3DDC84" opacity="0.12"/>
<rect x="946.5" y="111.5" width="3" height="3" rx="1" fill="#3DDC84" opacity="0.08"/>
<rect x="298.0" y="591.3" width="3" height="3" rx="1" fill="#2563EB" opacity="0.11"/>
<rect x="64.7" y="372.2" width="4" height="4" rx="1" fill="#3b82f6" opacity="0.26"/>
<rect x="1041.7" y="795.4" width="4" height="4" rx="1" fill="#2563EB" opacity="0.19"/>
<rect x="515.7" y="505.3" width="3" height="3" rx="1" fill="#2563EB" opacity="0.25"/>
<rect x="555.1" y="548.9" width="5" height="5" rx="1" fill="#3DDC84" opacity="0.27"/>
<circle cx="540" cy="600" r="320" fill="#2563EB" opacity="0.10" filter="url(#gglow)"/>
<g transform="translate(560,620) scale(1.05)">
<path d="M -150,30 C -230,30 -250,-70 -180,-90 C -120,-105 -120,-30 -160,-25 C -185,-22 -185,-55 -165,-58" fill="none" stroke="url(#cob)" stroke-width="34" stroke-linecap="round"/>
<rect x="-267" y="-85" width="10" height="10" rx="2" fill="#3b82f6" opacity="0.90"/>
<rect x="-314" y="-93" width="6" height="6" rx="2" fill="#3b82f6" opacity="0.85"/>
<rect x="-292" y="-41" width="12" height="12" rx="2" fill="#3b82f6" opacity="0.80"/>
<rect x="-268" y="-122" width="12" height="12" rx="2" fill="#3b82f6" opacity="0.75"/>
<rect x="-288" y="-84" width="12" height="12" rx="2" fill="#3b82f6" opacity="0.70"/>
<rect x="-295" y="-132" width="8" height="8" rx="2" fill="#3b82f6" opacity="0.65"/>
<rect x="-311" y="-87" width="6" height="6" rx="2" fill="#3b82f6" opacity="0.60"/>
<rect x="-297" y="-142" width="6" height="6" rx="2" fill="#3b82f6" opacity="0.55"/>
<rect x="-271" y="-146" width="10" height="10" rx="2" fill="#3b82f6" opacity="0.50"/>
<rect x="-283" y="-64" width="12" height="12" rx="2" fill="#3b82f6" opacity="0.45"/>
<rect x="-300" y="-39" width="12" height="12" rx="2" fill="#3b82f6" opacity="0.40"/>
<rect x="-301" y="-81" width="8" height="8" rx="2" fill="#3b82f6" opacity="0.35"/>
<rect x="-312" y="-138" width="8" height="8" rx="2" fill="#3b82f6" opacity="0.30"/>
<rect x="-285" y="-119" width="12" height="12" rx="2" fill="#3b82f6" opacity="0.25"/>
<rect x="-305" y="-47" width="12" height="12" rx="2" fill="#3b82f6" opacity="0.20"/>
<rect x="-286" y="-104" width="10" height="10" rx="2" fill="#3b82f6" opacity="0.15"/>
<path d="M -40,95 q -18,55 -55,70" fill="none" stroke="#1d4ed8" stroke-width="26" stroke-linecap="round"/>
<path d="M 70,95 q 18,55 55,70" fill="none" stroke="#1d4ed8" stroke-width="26" stroke-linecap="round"/>
<path d="M -160,10 C -150,-90 -60,-150 30,-150 C 130,-150 195,-95 205,-30 C 212,15 175,70 150,95 C 90,150 -70,150 -120,110 C -160,80 -168,55 -160,10 Z" fill="url(#cob)"/>
<path d="M -120,75 C -60,140 90,140 145,90 C 110,120 -70,128 -120,75 Z" fill="#3b82f6" opacity="0.55"/>
<path d="M -120,-138 l 14,-18 l 14,18 Z" fill="#5A0FC8" opacity="0.9"/>
<path d="M -80,-144 l 14,-20 l 14,20 Z" fill="#5A0FC8" opacity="0.9"/>
<path d="M -38,-150 l 14,-22 l 14,22 Z" fill="#5A0FC8" opacity="0.9"/>
<path d="M 5,-144 l 14,-20 l 14,20 Z" fill="#5A0FC8" opacity="0.9"/>
<path d="M 50,-138 l 14,-18 l 14,18 Z" fill="#5A0FC8" opacity="0.9"/>
<path d="M 95,-132 l 14,-16 l 14,16 Z" fill="#5A0FC8" opacity="0.9"/>
<path d="M 150,-70 C 215,-80 270,-45 270,5 C 270,55 215,80 165,70 C 120,60 120,-55 150,-70 Z" fill="url(#cob)"/>
<ellipse cx="262" cy="22" rx="48" ry="34" fill="#1d4ed8"/>
<path d="M 225,38 q 45,28 80,6" fill="none" stroke="#0B1020" stroke-width="6" stroke-linecap="round"/>
<circle cx="205" cy="-28" r="52" fill="url(#cob)"/>
<circle cx="205" cy="-28" r="36" fill="#F4F6FF"/>
<circle cx="218" cy="-24" r="18" fill="#3DDC84"/>
<circle cx="218" cy="-24" r="8" fill="#0B1020"/>
<circle cx="212" cy="-30" r="5" fill="#F4F6FF"/>
<rect x="26" y="6" width="12" height="12" rx="2" fill="#F4F6FF" opacity="0.11"/>
<rect x="183" y="-91" width="14" height="14" rx="2" fill="#F4F6FF" opacity="0.11"/>
<rect x="89" y="-92" width="12" height="12" rx="2" fill="#F4F6FF" opacity="0.09"/>
<rect x="120" y="-129" width="12" height="12" rx="2" fill="#F4F6FF" opacity="0.18"/>
<rect x="105" y="20" width="10" height="10" rx="2" fill="#F4F6FF" opacity="0.13"/>
<rect x="174" y="-124" width="10" height="10" rx="2" fill="#F4F6FF" opacity="0.07"/>
<rect x="-56" y="-132" width="12" height="12" rx="2" fill="#F4F6FF" opacity="0.09"/>
<rect x="80" y="-89" width="10" height="10" rx="2" fill="#F4F6FF" opacity="0.13"/>
<rect x="45" y="32" width="12" height="12" rx="2" fill="#F4F6FF" opacity="0.14"/>
<rect x="9" y="3" width="10" height="10" rx="2" fill="#F4F6FF" opacity="0.14"/>
<rect x="-27" y="-80" width="12" height="12" rx="2" fill="#F4F6FF" opacity="0.05"/>
<rect x="70" y="-112" width="10" height="10" rx="2" fill="#F4F6FF" opacity="0.16"/>
<rect x="1" y="109" width="14" height="14" rx="2" fill="#F4F6FF" opacity="0.05"/>
<rect x="-68" y="97" width="12" height="12" rx="2" fill="#F4F6FF" opacity="0.10"/>
<rect x="126" y="-31" width="14" height="14" rx="2" fill="#F4F6FF" opacity="0.13"/>
<rect x="154" y="-70" width="10" height="10" rx="2" fill="#F4F6FF" opacity="0.09"/>
<rect x="-144" y="-33" width="10" height="10" rx="2" fill="#F4F6FF" opacity="0.07"/>
<rect x="126" y="-137" width="12" height="12" rx="2" fill="#F4F6FF" opacity="0.15"/>
<rect x="-81" y="5" width="12" height="12" rx="2" fill="#F4F6FF" opacity="0.12"/>
<rect x="234" y="60" width="12" height="12" rx="2" fill="#F4F6FF" opacity="0.13"/>
<rect x="-105" y="-31" width="10" height="10" rx="2" fill="#F4F6FF" opacity="0.05"/>
<rect x="187" y="113" width="14" height="14" rx="2" fill="#F4F6FF" opacity="0.09"/>
<rect x="195" y="-85" width="12" height="12" rx="2" fill="#F4F6FF" opacity="0.18"/>
<rect x="85" y="10" width="10" height="10" rx="2" fill="#F4F6FF" opacity="0.18"/>
<rect x="-67" y="-73" width="14" height="14" rx="2" fill="#F4F6FF" opacity="0.09"/>
<rect x="-34" y="-121" width="10" height="10" rx="2" fill="#F4F6FF" opacity="0.08"/>
<rect x="98" y="-136" width="12" height="12" rx="2" fill="#F4F6FF" opacity="0.10"/>
<rect x="27" y="109" width="12" height="12" rx="2" fill="#F4F6FF" opacity="0.16"/>
<rect x="-97" y="-40" width="14" height="14" rx="2" fill="#F4F6FF" opacity="0.07"/>
<rect x="204" y="73" width="10" height="10" rx="2" fill="#F4F6FF" opacity="0.14"/>
<rect x="-88" y="24" width="14" height="14" rx="2" fill="#F4F6FF" opacity="0.08"/>
<rect x="221" y="89" width="14" height="14" rx="2" fill="#F4F6FF" opacity="0.06"/>
<rect x="-132" y="-112" width="14" height="14" rx="2" fill="#F4F6FF" opacity="0.18"/>
<rect x="-57" y="43" width="12" height="12" rx="2" fill="#F4F6FF" opacity="0.10"/>
<rect x="203" y="-12" width="14" height="14" rx="2" fill="#F4F6FF" opacity="0.07"/>
<rect x="131" y="-122" width="10" height="10" rx="2" fill="#F4F6FF" opacity="0.11"/>
<rect x="105" y="20" width="10" height="10" rx="2" fill="#F4F6FF" opacity="0.09"/>
<rect x="208" y="-87" width="10" height="10" rx="2" fill="#F4F6FF" opacity="0.06"/>
<rect x="10" y="-75" width="10" height="10" rx="2" fill="#F4F6FF" opacity="0.07"/>
<rect x="-6" y="9" width="10" height="10" rx="2" fill="#F4F6FF" opacity="0.06"/>
<rect x="-96" y="-23" width="12" height="12" rx="2" fill="#F4F6FF" opacity="0.14"/>
<rect x="120" y="12" width="10" height="10" rx="2" fill="#F4F6FF" opacity="0.13"/>
<rect x="210" y="-17" width="12" height="12" rx="2" fill="#F4F6FF" opacity="0.14"/>
<rect x="225" y="-134" width="14" height="14" rx="2" fill="#F4F6FF" opacity="0.06"/>
<rect x="-124" y="-59" width="10" height="10" rx="2" fill="#F4F6FF" opacity="0.18"/>
<g filter="url(#glow)"><rect x="-40" y="20" width="46" height="46" rx="8" fill="#3DDC84" opacity="0.95"/><circle cx="-17" cy="40" r="7" fill="#0B1020"/><rect x="-20" y="40" width="6" height="14" fill="#0B1020"/></g>
</g>
<g filter="url(#glow)"><circle cx="350" cy="690" r="70" fill="none" stroke="#3DDC84" stroke-width="12"/><line x1="398" y1="738" x2="470" y2="810" stroke="#3DDC84" stroke-width="18" stroke-linecap="round"/></g>
<text x="540" y="170" font-family="Poppins, Nunito, 'Segoe UI', system-ui, sans-serif" font-size="92" font-weight="900" fill="#F4F6FF" text-anchor="middle">HIDDEN IN</text>
<text x="540" y="262" font-family="Poppins, Nunito, 'Segoe UI', system-ui, sans-serif" font-size="92" font-weight="900" fill="#3DDC84" text-anchor="middle" filter="url(#glow)">PLAIN SIGHT</text>
<text x="540" y="320" font-family="Poppins, Nunito, 'Segoe UI', system-ui, sans-serif" font-size="30" fill="#3b82f6" text-anchor="middle" letter-spacing="2">how secrets hide inside ordinary things</text>
<text x="540" y="980" font-family="'JetBrains Mono','Space Mono',ui-monospace,monospace" font-size="26" fill="#F4F6FF" text-anchor="middle" opacity="0.8">steganography, explained  -  Cipher</text>
</svg>